<svg width="396" height="506" viewBox="0 0 396 506" fill="none" xmlns="http://www.w3.org/2000/svg">
<path d="M218.5 1.50016C291.735 7.09873 325.693 14.288 357.5 43.5002C387.506 77.9282 394.65 100.186 395.5 143.5C392.174 192.704 387.498 218.362 374 260.5C365.586 296.412 361.95 316.013 360.5 348.5C359.865 379.547 359.793 394.683 360.5 415C354.263 433.889 350.22 444.14 333.5 456.5C299.059 486.836 278.743 490.879 242.5 498C228.575 501.948 222.602 503.815 202.5 505.5L154.5 498C134.082 495.677 115.393 488.038 65 459.5C45.7109 448.966 35.9999 417.5 35.9999 417.5C35.9999 417.5 36.6297 389.609 35.9999 364.5C34.3357 346.742 32.6959 341.875 30 296.5C23.9256 276.838 17.2856 248.948 7.49995 216.5C5.10204 206.933 4.14043 197.036 2.49995 178.5C0.600162 173.296 0.374544 164.223 2.49995 129.5C3.2418 112.058 7.7338 98.9662 16.5 75.0001C31.1657 50.0116 36.8522 42.7661 44.4999 36.5002C58.0992 24.7664 66.4999 20.5 88.4999 13C110.5 5.5 127.684 2.69083 156.5 1.50016C166.938 -0.0304658 183.402 0.29103 218.5 1.50016Z" fill="#21669F"/>
<ellipse cx="194.5" cy="354.5" rx="62.5" ry="60.5" fill="#D1E9FB"/>
<ellipse cx="299" cy="309" rx="23" ry="21" fill="#D1E9FB"/>
<rect x="32" y="64" width="331" height="178" rx="85" fill="#D1E9FB" stroke="black" stroke-width="10"/>
<mask id="path-5-inside-1_105_2" fill="white">
<rect x="60" y="102" width="270" height="107" rx="6"/>
</mask>
<rect x="60" y="102" width="270" height="107" rx="6" fill="#96CEFC" stroke="black" stroke-width="16" mask="url(#path-5-inside-1_105_2)"/>
</svg>
