<svg width="425" height="537" viewBox="0 0 425 537" fill="none" xmlns="http://www.w3.org/2000/svg">
<rect width="425" height="537" fill="white"/>
<path d="M226.5 22.5002C299.735 28.0987 333.693 35.288 365.5 64.5002C395.506 98.9282 402.65 121.186 403.5 164.5C400.174 213.704 395.498 239.362 382 281.5C373.586 317.412 369.95 337.013 368.5 369.5C367.865 400.547 367.793 415.683 368.5 436C362.263 454.889 358.22 465.14 341.5 477.5C307.059 507.836 286.743 511.879 250.5 519C236.575 522.948 230.602 524.815 210.5 526.5L162.5 519C142.082 516.677 123.393 509.038 73 480.5C53.7109 469.966 43.9999 438.5 43.9999 438.5C43.9999 438.5 44.6297 410.609 43.9999 385.5C42.3357 367.742 40.6959 362.875 38 317.5C31.9256 297.838 25.2856 269.948 15.5 237.5C13.102 227.933 12.1404 218.036 10.5 199.5C8.60016 194.296 8.37454 185.223 10.5 150.5C11.2418 133.058 15.7338 119.966 24.5 96.0001C39.1657 71.0116 44.8522 63.7661 52.4999 57.5002C66.0992 45.7664 74.4999 41.5 96.4999 34C118.5 26.5 135.684 23.6908 164.5 22.5002C174.938 20.9695 191.402 21.291 226.5 22.5002Z" fill="#21669F"/>
<ellipse cx="202.5" cy="375.5" rx="62.5" ry="60.5" fill="#D1E9FB"/>
<ellipse cx="307" cy="330" rx="23" ry="21" fill="#D1E9FB"/>
<rect x="40" y="85" width="331" height="178" rx="85" fill="#D1E9FB" stroke="black" stroke-width="10"/>
<mask id="path-5-inside-1_104_15" fill="white">
<rect x="68" y="123" width="270" height="107" rx="6"/>
</mask>
<rect x="68" y="123" width="270" height="107" rx="6" fill="#96CEFC" stroke="black" stroke-width="16" mask="url(#path-5-inside-1_104_15)"/>
</svg>
