<svg width="152" height="241" viewBox="0 0 152 241" fill="none" xmlns="http://www.w3.org/2000/svg">
<path d="M17.918 15.833H17.898C17.898 15.833 13.738 16.473 13.287 21.48V26.488H17.579H18.236H22.528V21.48C22.077 16.472 17.918 15.833 17.918 15.833Z" fill="#FFEEC0"/>
<path d="M22.67 26.6279H13.147V21.4799C13.385 18.8279 14.656 17.3979 15.68 16.6639C16.791 15.8669 17.833 15.6999 17.877 15.6929L17.918 15.6919C17.982 15.6999 22.213 16.4089 22.669 21.4669L22.67 26.6279ZM13.428 26.3469H22.388V21.4799C22.206 19.4629 21.396 17.9189 19.983 16.8999C18.926 16.1379 17.907 15.9729 17.896 15.9709C17.879 15.9769 13.862 16.6579 13.427 21.4919L13.428 26.3469Z" fill="#AD8B5B"/>
<path d="M17.913 19.2422H17.902C17.902 19.2422 15.65 19.5892 15.406 22.3002V25.0112H17.729H18.086H20.409V22.3002C20.165 19.5882 17.913 19.2422 17.913 19.2422Z" fill="#2E0200"/>
<path d="M20.549 25.1511H15.266V22.2991C15.517 19.4981 17.857 19.1061 17.881 19.1031L17.913 19.1011C17.958 19.1061 20.298 19.4981 20.549 22.2861V25.1511ZM15.547 24.8701H20.269V22.3001C20.048 19.8581 18.104 19.4221 17.908 19.3851C17.692 19.4241 15.77 19.8411 15.547 22.3131V24.8701Z" fill="#AD8B5B"/>
<path d="M18.328 16.273C18.328 16.512 18.159 16.707 17.952 16.707C17.744 16.707 17.575 16.513 17.575 16.273V0.966959C17.575 0.727959 17.744 0.532959 17.952 0.532959C18.159 0.532959 18.328 0.726959 18.328 0.966959V16.273Z" fill="white"/>
<path d="M17.951 16.812C17.686 16.812 17.47 16.57 17.47 16.274V0.966955C17.47 0.670955 17.686 0.428955 17.951 0.428955C18.216 0.428955 18.432 0.670955 18.432 0.966955V16.273C18.432 16.57 18.216 16.812 17.951 16.812ZM17.951 0.637955C17.801 0.637955 17.679 0.785955 17.679 0.966955V16.273C17.679 16.454 17.801 16.602 17.951 16.602C18.101 16.602 18.222 16.454 18.222 16.273V0.966955C18.223 0.785955 18.101 0.637955 17.951 0.637955Z" fill="#AD8B5B"/>
<path d="M19.358 13.854C19.358 14.476 18.709 14.979 17.908 14.979C17.107 14.979 16.457 14.475 16.457 13.854C16.457 13.233 17.106 12.729 17.908 12.729C18.709 12.729 19.358 13.232 19.358 13.854Z" fill="#FFEEC0"/>
<path d="M17.908 15.084C17.05 15.084 16.352 14.532 16.352 13.854C16.352 13.176 17.05 12.624 17.908 12.624C18.766 12.624 19.463 13.176 19.463 13.854C19.463 14.532 18.765 15.084 17.908 15.084ZM17.908 12.833C17.166 12.833 16.562 13.291 16.562 13.854C16.562 14.417 17.166 14.875 17.908 14.875C18.65 14.875 19.254 14.417 19.254 13.854C19.254 13.291 18.649 12.833 17.908 12.833Z" fill="#AD8B5B"/>
<path d="M19.671 8.14896C19.671 8.88596 18.901 9.48296 17.951 9.48296C17.001 9.48296 16.231 8.88596 16.231 8.14896C16.231 7.41196 17.002 6.81396 17.951 6.81396C18.902 6.81396 19.671 7.41196 19.671 8.14896Z" fill="#FFEEC0"/>
<path d="M17.908 9.58796C16.902 9.58796 16.083 8.94196 16.083 8.14896C16.083 7.35596 16.902 6.70996 17.908 6.70996C18.914 6.70996 19.733 7.35596 19.733 8.14896C19.733 8.94196 18.914 9.58796 17.908 9.58796ZM17.908 6.91896C17.017 6.91896 16.292 7.47096 16.292 8.14896C16.292 8.82696 17.017 9.37896 17.908 9.37896C18.799 9.37896 19.523 8.82696 19.523 8.14896C19.523 7.47096 18.798 6.91896 17.908 6.91896Z" fill="#AD8B5B"/>
<path d="M19.088 3.38597C19.088 3.89197 18.559 4.30197 17.907 4.30197C17.255 4.30197 16.726 3.89197 16.726 3.38597C16.726 2.87997 17.254 2.46997 17.907 2.46997C18.56 2.46997 19.088 2.87997 19.088 3.38597Z" fill="#FFEEC0"/>
<path d="M17.908 4.40599C17.199 4.40599 16.623 3.94899 16.623 3.38599C16.623 2.82299 17.199 2.36499 17.908 2.36499C18.616 2.36499 19.193 2.82299 19.193 3.38599C19.193 3.94899 18.616 4.40599 17.908 4.40599ZM17.908 2.57499C17.315 2.57499 16.832 2.93899 16.832 3.38599C16.832 3.83299 17.315 4.19699 17.908 4.19699C18.501 4.19699 18.984 3.83299 18.984 3.38599C18.984 2.93799 18.501 2.57499 17.908 2.57499Z" fill="#AD8B5B"/>
<path d="M17.923 23.5798H17.893C17.893 23.5798 11.647 24.4278 10.97 31.0608V37.6938H17.415H18.402H24.847V31.0608C24.169 24.4278 17.923 23.5798 17.923 23.5798Z" fill="#FFEEC0"/>
<path d="M24.987 37.8349H10.829V31.0619C11.511 24.3809 17.811 23.4499 17.874 23.4409L17.923 23.4399C18.005 23.4499 24.305 24.3809 24.986 31.0469L24.987 37.8349ZM11.109 37.5539H24.706V31.0609C24.048 24.6329 17.965 23.7279 17.904 23.7189L17.893 23.7199C17.851 23.7269 11.768 24.6329 11.109 31.0749V37.5539Z" fill="#AD8B5B"/>
<path d="M11.605 38.079H11.396V30.638C12.078 24.957 17.811 23.493 17.868 23.479L17.918 23.683C17.861 23.697 12.268 25.129 11.604 30.651L11.605 38.079Z" fill="#AD8B5B"/>
<path d="M12.217 38.079H12.007V30.638C12.624 24.96 17.816 23.494 17.868 23.48L17.923 23.682C17.872 23.696 12.816 25.128 12.216 30.65L12.217 38.079Z" fill="#AD8B5B"/>
<path d="M12.828 38.079H12.619V30.638C13.171 24.962 17.822 23.495 17.869 23.48L17.93 23.681C17.884 23.695 13.366 25.126 12.828 30.648V38.079Z" fill="#AD8B5B"/>
<path d="M13.44 38.079H13.23V30.638C13.717 24.965 17.826 23.496 17.868 23.481L17.935 23.679C17.895 23.693 13.914 25.123 13.439 30.646L13.44 38.079Z" fill="#AD8B5B"/>
<path d="M14.051 38.0789H13.841V30.6379C14.061 27.6759 15.139 25.8929 16.005 24.9159C16.947 23.8529 17.828 23.4979 17.865 23.4829L17.942 23.6779C17.907 23.6919 14.461 25.1219 14.05 30.6459L14.051 38.0789Z" fill="#AD8B5B"/>
<path d="M14.663 38.0791H14.454V30.6381C14.811 24.9731 17.738 23.5441 17.863 23.4861L17.951 23.6751C17.922 23.6891 15.011 25.1201 14.662 30.6441L14.663 38.0791Z" fill="#AD8B5B"/>
<path d="M15.274 38.079H15.065V30.638C15.356 24.979 17.756 23.548 17.858 23.49L17.962 23.672C17.938 23.685 15.56 25.118 15.274 30.644V38.079Z" fill="#AD8B5B"/>
<path d="M15.886 38.0791H15.676V30.6381C15.903 24.9871 17.771 23.5551 17.849 23.4961L17.973 23.6651C17.955 23.6791 16.106 25.1141 15.885 30.6421L15.886 38.0791Z" fill="#AD8B5B"/>
<path d="M16.498 38.0791H16.288V30.6381C16.449 24.9981 17.783 23.5661 17.84 23.5081L17.99 23.6541C17.977 23.6671 16.655 25.1091 16.498 30.6411V38.0791Z" fill="#AD8B5B"/>
<path d="M17.109 38.0791H16.9V30.6381C16.996 25.0121 17.794 23.5861 17.827 23.5281L18.008 23.6331C18 23.6471 17.204 25.0951 17.109 30.6391V38.0791Z" fill="#AD8B5B"/>
<path d="M17.721 38.0791H17.512V30.6381C17.544 25.0311 17.807 23.6181 17.819 23.5601L18.024 23.6001C18.021 23.6141 17.754 25.0631 17.722 30.6381L17.721 38.0791Z" fill="#AD8B5B"/>
<path d="M18.333 38.0791H18.124V30.6381C18.092 25.0641 17.824 23.6151 17.821 23.6001L18.027 23.5601C18.038 23.6181 18.301 25.0301 18.334 30.6371L18.333 38.0791Z" fill="#AD8B5B"/>
<path d="M18.944 38.0791H18.735V30.6381C18.64 25.0701 17.844 23.6471 17.836 23.6341L18.017 23.5281C18.051 23.5861 18.848 25.0121 18.945 30.6361L18.944 38.0791Z" fill="#AD8B5B"/>
<path d="M19.556 38.0791H19.346V30.6381C19.188 25.1091 17.866 23.6671 17.853 23.6541L18.003 23.5081C18.06 23.5661 19.393 24.9981 19.555 30.6351L19.556 38.0791Z" fill="#AD8B5B"/>
<path d="M20.168 38.0791H19.959V30.6381C19.737 25.0951 17.89 23.6791 17.871 23.6651L17.995 23.4961C18.075 23.5551 19.943 24.9871 20.169 30.6341V38.0791H20.168Z" fill="#AD8B5B"/>
<path d="M20.779 38.079H20.57V30.638C20.285 25.103 17.907 23.685 17.883 23.672L17.987 23.49C18.088 23.548 20.488 24.979 20.779 30.633V38.079Z" fill="#AD8B5B"/>
<path d="M21.391 38.0791H21.182V30.6381C21 27.7551 20.115 26.0141 19.404 25.0611C18.636 24.0321 17.901 23.6781 17.893 23.6751L17.981 23.4861C18.107 23.5441 21.034 24.9731 21.39 30.6321V38.0791H21.391Z" fill="#AD8B5B"/>
<path d="M22.003 38.0789H21.794V30.6379C21.383 25.1139 17.938 23.6919 17.903 23.6779L17.98 23.4829C18.016 23.4969 21.582 24.9679 22.003 30.6289V38.0789Z" fill="#AD8B5B"/>
<path d="M22.614 38.0789H22.404V30.6379C21.93 25.1179 17.949 23.6929 17.909 23.6799L17.976 23.4819C18.018 23.4969 22.126 24.9659 22.613 30.6289L22.614 38.0789Z" fill="#AD8B5B"/>
<path d="M23.226 38.079H23.017V30.638C22.737 27.758 21.363 26.017 20.259 25.065C19.065 24.035 17.927 23.684 17.916 23.681L17.976 23.48C18.023 23.494 22.674 24.962 23.225 30.627L23.226 38.079Z" fill="#AD8B5B"/>
<path d="M23.837 38.079H23.628V30.638C23.028 25.123 17.972 23.696 17.921 23.682L17.976 23.48C18.028 23.494 23.221 24.96 23.837 30.627V38.079Z" fill="#AD8B5B"/>
<path d="M24.449 38.079H24.24V30.638C23.577 25.129 17.983 23.696 17.927 23.683L17.977 23.479C18.035 23.493 23.768 24.958 24.449 30.626V38.079Z" fill="#AD8B5B"/>
<path d="M26.409 37.6938H9.233V39.0528H26.409V37.6938Z" fill="#FFEEC0"/>
<path d="M26.549 39.194H9.091V37.554H26.549V39.194ZM9.373 38.913H26.268V37.835H9.373V38.913Z" fill="#AD8B5B"/>
<path d="M26.583 39.054H18.389H17.427H9.233C9.233 39.054 10.613 39.911 10.882 42.842C10.882 42.842 10.677 51.64 10.882 51.844C11.055 52.016 16.278 51.898 17.908 51.856C19.538 51.898 24.762 52.016 24.934 51.844C25.139 51.639 24.934 42.842 24.934 42.842C25.203 39.911 26.583 39.054 26.583 39.054Z" fill="#FFEEC0"/>
<path d="M22.897 52.0758C21.177 52.0758 18.833 52.0208 17.905 51.9978C16.984 52.0208 14.639 52.0758 12.92 52.0758C10.916 52.0758 10.845 52.0058 10.783 51.9438C10.619 51.7798 10.605 48.7158 10.742 42.8378C10.484 40.0408 9.172 39.1808 9.159 39.1728C9.106 39.1398 9.081 39.0748 9.098 39.0148C9.116 38.9548 9.17 38.9128 9.233 38.9128H26.583C26.646 38.9128 26.701 38.9548 26.718 39.0148C26.735 39.0748 26.711 39.1398 26.658 39.1728C26.645 39.1808 25.333 40.0408 25.074 42.8548C25.211 48.7168 25.197 51.7798 25.033 51.9438C24.971 52.0048 24.9 52.0758 22.897 52.0758ZM17.904 51.7158C18.838 51.7388 21.179 51.7938 22.896 51.7938C24.287 51.7938 24.701 51.7578 24.822 51.7348C24.938 51.1338 24.869 46.1458 24.792 42.8438C24.989 40.6978 25.76 39.6348 26.199 39.1938H9.616C10.055 39.6338 10.826 40.6948 11.022 42.8278C10.946 46.1448 10.877 51.1348 10.993 51.7348C11.115 51.7578 11.528 51.7938 12.919 51.7938C14.635 51.7938 16.977 51.7398 17.904 51.7158Z" fill="#AD8B5B"/>
<path d="M17.807 39.282C17.807 39.282 16.094 40.957 16.218 43.051C16.342 45.144 16.218 51.906 16.218 51.906H19.517L19.447 43.051C19.447 43.051 19.587 40.591 17.807 39.282Z" fill="white"/>
<path d="M19.517 52.0479H16.218C16.18 52.0479 16.144 52.0319 16.118 52.0059C16.091 51.9789 16.077 51.9429 16.078 51.9049C16.079 51.8369 16.2 45.1239 16.078 43.0599C15.951 40.9269 17.637 39.2529 17.709 39.1829C17.758 39.1339 17.835 39.1289 17.891 39.1699C19.711 40.5079 19.594 42.9559 19.588 43.0589L19.658 51.9059C19.658 51.9439 19.643 51.9799 19.617 52.0059C19.59 52.0329 19.554 52.0479 19.517 52.0479ZM16.361 51.7669H19.376L19.307 43.0529C19.308 43.0209 19.415 40.7359 17.823 39.4709C17.487 39.8369 16.256 41.3039 16.359 43.0429C16.471 44.9489 16.378 50.7759 16.361 51.7669Z" fill="#AD8B5B"/>
<path d="M17.811 39.98C17.811 39.98 16.192 41.563 16.309 43.54C16.426 45.518 16.309 51.906 16.309 51.906H19.426L19.36 43.54C19.36 43.54 19.491 41.216 17.811 39.98Z" fill="#2E0200"/>
<path d="M19.426 52.0481H16.309C16.271 52.0481 16.235 52.0321 16.209 52.0061C16.183 51.9791 16.168 51.9431 16.169 51.9051C16.17 51.8421 16.284 45.4991 16.169 43.5501C16.049 41.5311 17.645 39.9471 17.713 39.8811C17.762 39.8331 17.839 39.8271 17.894 39.8681C19.617 41.1351 19.506 43.4511 19.501 43.5501L19.567 51.9071C19.567 51.9451 19.553 51.9811 19.526 52.0071C19.499 52.0331 19.463 52.0481 19.426 52.0481ZM16.452 51.7671H19.284L19.22 43.5421C19.221 43.5111 19.321 41.3621 17.826 40.1691C17.502 40.5231 16.353 41.9001 16.45 43.5331C16.555 45.3281 16.468 50.8081 16.452 51.7671Z" fill="#AD8B5B"/>
<path d="M12.478 39.282C12.478 39.282 10.765 40.957 10.888 43.051C11.013 45.144 10.888 51.906 10.888 51.906H14.188L14.118 43.051C14.118 43.051 14.257 40.591 12.478 39.282Z" fill="white"/>
<path d="M14.188 52.0479H10.888C10.85 52.0479 10.814 52.0319 10.788 52.0059C10.762 51.9789 10.747 51.9429 10.748 51.9049C10.749 51.8369 10.871 45.1239 10.748 43.0599C10.622 40.9269 12.308 39.2529 12.38 39.1829C12.429 39.1339 12.506 39.1289 12.562 39.1699C14.382 40.5079 14.265 42.9559 14.259 43.0589L14.329 51.9059C14.329 51.9439 14.315 51.9799 14.288 52.0059C14.261 52.0329 14.225 52.0479 14.188 52.0479ZM11.031 51.7669H14.046L13.977 43.0529C13.978 43.0209 14.085 40.7359 12.493 39.4709C12.156 39.8369 10.926 41.3039 11.029 43.0429C11.142 44.9489 11.048 50.7759 11.031 51.7669Z" fill="#AD8B5B"/>
<path d="M12.48 39.7009C12.48 39.7009 10.823 41.3199 10.943 43.3449C11.063 45.3689 10.943 51.9069 10.943 51.9069H14.133L14.066 43.3449C14.066 43.3449 14.2 40.9659 12.48 39.7009Z" fill="#2E0200"/>
<path d="M14.133 52.048H10.943C10.905 52.048 10.869 52.032 10.842 52.006C10.816 51.979 10.801 51.943 10.802 51.905C10.803 51.84 10.92 45.349 10.802 43.354C10.679 41.29 12.311 39.669 12.381 39.602C12.43 39.554 12.507 39.548 12.562 39.589C14.324 40.884 14.211 43.254 14.205 43.354L14.273 51.907C14.273 51.945 14.258 51.981 14.232 52.007C14.206 52.033 14.17 52.048 14.133 52.048ZM11.086 51.767H13.991L13.924 43.346C13.925 43.315 14.028 41.111 12.494 39.89C12.165 40.249 10.983 41.661 11.083 43.336C11.192 45.176 11.103 50.795 11.086 51.767Z" fill="#AD8B5B"/>
<path d="M23.521 39.282C23.521 39.282 21.807 40.957 21.931 43.051C22.056 45.144 21.931 51.906 21.931 51.906H25.231L25.161 43.051C25.161 43.051 25.301 40.591 23.521 39.282Z" fill="white"/>
<path d="M25.231 52.0479H21.931C21.893 52.0479 21.857 52.0319 21.831 52.0059C21.805 51.9789 21.791 51.9429 21.791 51.9049C21.792 51.8369 21.913 45.1239 21.791 43.0599C21.664 40.9269 23.351 39.2529 23.422 39.1829C23.471 39.1339 23.549 39.1289 23.604 39.1699C25.424 40.5079 25.307 42.9559 25.301 43.0589L25.371 51.9059C25.371 51.9439 25.357 51.9799 25.33 52.0059C25.304 52.0329 25.268 52.0479 25.231 52.0479ZM22.075 51.7669H25.09L25.021 43.0529C25.023 43.0209 25.129 40.7359 23.537 39.4709C23.2 39.8369 21.97 41.3039 22.073 43.0429C22.185 44.9489 22.092 50.7759 22.075 51.7669Z" fill="#AD8B5B"/>
<path d="M23.524 39.98C23.524 39.98 21.905 41.563 22.022 43.54C22.139 45.518 22.022 51.906 22.022 51.906H25.139L25.074 43.54C25.074 43.54 25.206 41.216 23.524 39.98Z" fill="#2E0200"/>
<path d="M25.139 52.0481H22.022C21.984 52.0481 21.948 52.0321 21.922 52.0061C21.896 51.9791 21.881 51.9431 21.881 51.9051C21.882 51.8421 21.997 45.4991 21.881 43.5501C21.761 41.5311 23.357 39.9471 23.425 39.8811C23.474 39.8331 23.551 39.8271 23.606 39.8681C25.329 41.1351 25.218 43.4511 25.212 43.5501L25.278 51.9071C25.278 51.9451 25.263 51.9811 25.236 52.0071C25.212 52.0331 25.177 52.0481 25.139 52.0481ZM22.166 51.7671H24.999L24.934 43.5421C24.935 43.5111 25.036 41.3621 23.54 40.1691C23.216 40.5231 22.067 41.9001 22.164 43.5331C22.269 45.3281 22.182 50.8081 22.166 51.7671Z" fill="#AD8B5B"/>
<path d="M28.293 55.6631H7.52301V90.8361H28.293V55.6631Z" fill="#FFEEC0"/>
<path d="M28.433 90.977H7.38202V55.522H28.433V90.977ZM7.66302 90.696H28.152V55.804H7.66302V90.696Z" fill="#AD8B5B"/>
<path d="M28.964 55.6631H6.98199L5.20599 50.1191H30.609L28.964 55.6631Z" fill="#FFEEC0"/>
<path d="M29.069 55.804H6.87901L5.01401 49.978H30.798L29.069 55.804ZM7.08401 55.522H28.859L30.42 50.258H5.39901L7.08401 55.522Z" fill="#AD8B5B"/>
<path d="M30.609 50.1191H5.20602V51.8571H30.609V50.1191Z" fill="#FFEEC0"/>
<path d="M30.75 51.998H5.06601V49.978H30.75V51.998ZM5.34701 51.716H30.469V50.258H5.34701V51.716Z" fill="#AD8B5B"/>
<path d="M18.179 59.5898C18.179 59.5898 17.184 60.5618 17.256 61.7778C17.328 62.9928 17.256 66.9178 17.256 66.9178H19.172L19.131 61.7778C19.131 61.7778 19.212 60.3498 18.179 59.5898Z" fill="#2E0200"/>
<path d="M19.171 67.0589H17.255C17.217 67.0589 17.181 67.0439 17.155 67.0169C17.128 66.9899 17.115 66.9539 17.115 66.9159C17.116 66.8759 17.186 62.9819 17.115 61.7869C17.04 60.5219 18.037 59.5329 18.08 59.4909C18.129 59.4429 18.207 59.4369 18.262 59.4779C19.344 60.2729 19.274 61.7249 19.271 61.7869L19.312 66.9179C19.312 66.9559 19.297 66.9909 19.271 67.0179C19.245 67.0439 19.209 67.0589 19.171 67.0589ZM17.399 66.7769H19.029L18.99 61.7789C18.99 61.7569 19.049 60.5019 18.194 59.7809C17.964 60.0419 17.341 60.8379 17.397 61.7689C17.46 62.8439 17.411 66.0589 17.399 66.7769Z" fill="#AD8B5B"/>
<path d="M9.89499 59.5898C9.89499 59.5898 8.89999 60.5618 8.97199 61.7778C9.04399 62.9928 8.97199 66.9178 8.97199 66.9178H10.887L10.847 61.7778C10.847 61.7778 10.928 60.3498 9.89499 59.5898Z" fill="#2E0200"/>
<path d="M10.887 67.0589H8.972C8.934 67.0589 8.898 67.0439 8.872 67.0169C8.845 66.9899 8.831 66.9539 8.832 66.9159C8.833 66.8759 8.903 62.9819 8.832 61.7869C8.757 60.5219 9.754 59.5329 9.797 59.4909C9.847 59.4429 9.924 59.4369 9.979 59.4779C11.061 60.2729 10.991 61.7249 10.988 61.7869L11.029 66.9179C11.029 66.9559 11.014 66.9909 10.988 67.0179C10.961 67.0439 10.925 67.0589 10.887 67.0589ZM9.115 66.7769H10.745L10.706 61.7789C10.706 61.7569 10.765 60.5019 9.91 59.7809C9.68 60.0419 9.058 60.8379 9.113 61.7689C9.176 62.8439 9.127 66.0589 9.115 66.7769Z" fill="#AD8B5B"/>
<path d="M26.462 59.5898C26.462 59.5898 25.468 60.5618 25.54 61.7778C25.612 62.9928 25.54 66.9178 25.54 66.9178H27.455L27.414 61.7778C27.414 61.7778 27.496 60.3498 26.462 59.5898Z" fill="#2E0200"/>
<path d="M27.455 67.0589H25.54C25.502 67.0589 25.466 67.0439 25.44 67.0169C25.413 66.9899 25.399 66.9539 25.399 66.9159C25.4 66.8759 25.47 62.9819 25.399 61.7869C25.324 60.5219 26.321 59.5329 26.363 59.4909C26.412 59.4429 26.489 59.4369 26.545 59.4779C27.627 60.2729 27.558 61.7249 27.554 61.7869L27.595 66.9179C27.596 66.9559 27.581 66.9909 27.554 67.0179C27.528 67.0439 27.493 67.0589 27.455 67.0589ZM25.683 66.7769H27.313L27.274 61.7789C27.275 61.7569 27.333 60.5019 26.478 59.7809C26.248 60.0419 25.625 60.8379 25.681 61.7689C25.744 62.8439 25.695 66.0589 25.683 66.7769Z" fill="#AD8B5B"/>
<path d="M18.224 76.7581C18.224 76.7581 14.954 78.3421 15.191 80.3211C15.428 82.3001 15.191 88.6921 15.191 88.6921H21.485L21.352 80.3211C21.352 80.3211 21.619 77.9951 18.224 76.7581Z" fill="#2E0200"/>
<path d="M21.486 88.832H15.192C15.154 88.832 15.117 88.816 15.091 88.789C15.065 88.761 15.05 88.724 15.051 88.686C15.054 88.622 15.285 82.282 15.052 80.337C14.806 78.282 18.026 76.698 18.163 76.631C18.197 76.614 18.236 76.612 18.272 76.626C20.07 77.281 20.851 78.247 21.188 78.941C21.56 79.705 21.495 80.31 21.493 80.336L21.627 88.689C21.627 88.727 21.613 88.763 21.587 88.79C21.56 88.817 21.524 88.832 21.486 88.832ZM15.337 88.551H21.343L21.212 80.322C21.223 80.214 21.415 78.095 18.233 76.91C17.82 77.123 15.125 78.579 15.331 80.303C15.549 82.129 15.372 87.565 15.337 88.551Z" fill="#AD8B5B"/>
<path d="M7.51901 88.6921H10.676L10.542 80.3211C10.542 80.3211 10.8 78.0451 7.51901 76.7991V88.6921Z" fill="#2E0200"/>
<path d="M10.676 88.832H7.51902C7.44102 88.832 7.37802 88.769 7.37802 88.691V76.799C7.37802 76.753 7.40002 76.709 7.43902 76.683C7.47702 76.657 7.52602 76.651 7.56902 76.667C9.30802 77.327 10.062 78.282 10.389 78.966C10.748 79.719 10.685 80.311 10.682 80.336L10.817 88.69C10.817 88.728 10.803 88.764 10.776 88.791C10.75 88.817 10.713 88.832 10.676 88.832ZM7.66002 88.551H10.533L10.402 80.322C10.412 80.218 10.593 78.205 7.66002 77.005V88.551Z" fill="#AD8B5B"/>
<path d="M28.287 88.6921V76.9141C27.489 77.3591 25.355 78.7081 25.548 80.3211C25.785 82.3001 25.548 88.6921 25.548 88.6921H28.287Z" fill="#2E0200"/>
<path d="M28.287 88.8321H25.548C25.51 88.8321 25.474 88.8161 25.447 88.7891C25.421 88.7611 25.406 88.7241 25.408 88.6861C25.411 88.6221 25.641 82.2821 25.409 80.3371C25.208 78.6621 27.307 77.2991 28.219 76.7911C28.262 76.7671 28.316 76.7681 28.359 76.7931C28.402 76.8181 28.428 76.8641 28.428 76.9141V88.6921C28.428 88.7701 28.365 88.8321 28.287 88.8321ZM25.694 88.5511H28.147V77.1571C27.319 77.6491 25.519 78.8911 25.688 80.3031C25.907 82.1291 25.729 87.5651 25.694 88.5511Z" fill="#AD8B5B"/>
<path d="M31.378 147.547H4.43701V240.586H31.378V147.547Z" fill="#AD8B5B"/>
<path d="M31.378 147.547H4.43701V240.586H31.378V147.547Z" fill="#FFEEC0"/>
<path opacity="0.6" d="M4.43701 147.547V240.586H31.378V147.547H4.43701ZM25.499 234.416H6.04101C6.04101 215.041 4.31201 189.694 16.739 189.694C29.166 189.694 25.499 234.416 25.499 234.416ZM28.157 182.014H6.02701C6.02701 172.93 6.15001 153.999 17.908 153.999C29.666 153.999 28.157 182.014 28.157 182.014Z" fill="#E5D1A1"/>
<path d="M31.519 240.727H4.29602V147.406H31.519V240.727ZM4.57702 240.445H31.238V147.686H4.57702V240.445Z" fill="#AD8B5B"/>
<path d="M29.929 99.0591H5.88501V139.777H29.929V99.0591Z" fill="#FFEEC0"/>
<path opacity="0.6" d="M5.88501 99.0591V139.777H29.93V99.0591H5.88501ZM24.245 137.488C20.333 137.488 16.166 137.488 11.666 137.488C7.16601 137.488 7.51901 133.666 7.51901 133.666C7.51901 111.154 10.315 102.17 17.907 102.17C25.499 102.17 28.156 117.776 28.156 133.666C28.157 136.41 28.157 137.488 24.245 137.488Z" fill="#E5D1A1"/>
<path d="M30.071 139.917H5.745V98.918H30.071V139.917ZM6.026 139.636H29.789V99.199H6.026V139.636Z" fill="#AD8B5B"/>
<path d="M33.261 86.8081H2.55499V93.5111H33.261V86.8081Z" fill="#FFEEC0"/>
<path d="M33.401 93.651H2.414V86.667H33.401V93.651ZM2.695 93.37H33.12V86.949H2.695V93.37Z" fill="#AD8B5B"/>
<path d="M33.261 88.6921H2.55499V91.2581H33.261V88.6921Z" fill="#FFEEC0"/>
<path d="M33.401 91.398H2.414V88.551H33.401V91.398ZM2.695 91.117H33.12V88.832H2.695V91.117Z" fill="#AD8B5B"/>
<path d="M33.26 93.51H2.55499L5.88499 99.059H29.93L33.26 93.51Z" fill="#FFEEC0"/>
<path d="M30.009 99.1989H5.806L2.306 93.3689H33.509L30.009 99.1989ZM5.965 98.9179H29.85L33.012 93.6509H2.803L5.965 98.9179Z" fill="#AD8B5B"/>
<path d="M18.275 130.494C18.275 130.494 14.534 132.305 14.805 134.57C15.076 136.834 14.805 144.148 14.805 144.148H22.007L21.855 134.57C21.855 134.57 22.159 131.909 18.275 130.494Z" fill="#2E0200"/>
<path d="M22.007 144.289H14.805C14.767 144.289 14.731 144.272 14.704 144.245C14.678 144.218 14.663 144.181 14.665 144.142C14.668 144.069 14.933 136.814 14.666 134.586C14.386 132.248 18.057 130.443 18.214 130.367C18.248 130.35 18.288 130.348 18.323 130.361C22.266 131.798 21.998 134.557 21.994 134.585L22.147 144.146C22.147 144.183 22.133 144.219 22.107 144.246C22.081 144.273 22.045 144.289 22.007 144.289ZM14.951 144.008H21.864L21.714 134.572C21.727 134.451 21.95 132.009 18.284 130.647C17.837 130.876 14.706 132.556 14.945 134.553C15.196 136.653 14.989 142.938 14.951 144.008Z" fill="#AD8B5B"/>
<path d="M6.02701 144.148H9.63901L9.48701 134.57C9.48701 134.57 9.78201 131.968 6.02701 130.541V144.148Z" fill="#2E0200"/>
<path d="M9.63902 144.289H6.02702C5.94902 144.289 5.88602 144.226 5.88602 144.148V130.541C5.88602 130.495 5.90902 130.451 5.94602 130.426C5.98502 130.4 6.03302 130.394 6.07602 130.409C9.88902 131.858 9.62802 134.559 9.62502 134.586L9.77802 144.147C9.77802 144.184 9.76402 144.22 9.73802 144.247C9.71302 144.273 9.67602 144.289 9.63902 144.289ZM6.16802 144.008H9.49702L9.34702 134.572C9.35902 134.455 9.57002 132.125 6.16902 130.747L6.16802 144.008Z" fill="#AD8B5B"/>
<path d="M29.788 144.148V130.672C28.875 131.181 26.434 132.725 26.655 134.569C26.926 136.833 26.655 144.147 26.655 144.147L29.788 144.148Z" fill="#2E0200"/>
<path d="M29.788 144.289H26.655C26.617 144.289 26.581 144.272 26.554 144.245C26.528 144.218 26.513 144.181 26.515 144.142C26.518 144.069 26.783 136.814 26.516 134.586C26.288 132.682 28.681 131.129 29.72 130.549C29.763 130.526 29.817 130.526 29.86 130.551C29.903 130.575 29.929 130.622 29.929 130.672V144.148C29.929 144.226 29.866 144.289 29.788 144.289ZM26.801 144.008H29.648V130.915C28.712 131.467 26.598 132.908 26.794 134.554C27.046 136.653 26.838 142.938 26.801 144.008Z" fill="#AD8B5B"/>
<path d="M35.314 139.947H0.501038V147.547H35.314V139.947Z" fill="#FFEEC0"/>
<path d="M35.455 147.686H0.361023V139.806H35.455V147.686ZM0.642023 147.405H35.174V140.088H0.642023V147.405Z" fill="#AD8B5B"/>
<path d="M31.379 152.407H4.43701L0.501007 147.519H35.315L31.379 152.407Z" fill="#FFEEC0"/>
<path d="M31.446 152.548H4.37001L0.208008 147.378H35.608L31.446 152.548ZM4.50401 152.267H31.311L35.02 147.66H0.795008L4.50401 152.267Z" fill="#AD8B5B"/>
<path d="M26.37 127.411L23.78 124.821L21.324 127.276L18.926 124.878L16.463 127.341L13.969 124.846L11.277 127.539L8.85901 125.121L6.53101 127.449L5.88501 126.707V128.453L6.53101 129.195L8.85901 126.867L11.277 129.284L13.969 126.593L16.463 129.087L18.926 126.624L21.324 129.023L23.78 126.567L26.37 129.157L28.807 126.721L29.93 127.844V126.098L28.807 124.975L26.37 127.411Z" fill="#5E1100"/>
<path d="M11.277 129.483L8.86 127.065L6.525 129.401L5.746 128.505V126.33L6.539 127.243L8.86 124.922L11.277 127.34L13.969 124.648L16.463 127.142L18.925 124.679L21.324 127.079L23.779 124.623L26.369 127.214L28.806 124.776L30.07 126.04V128.184L28.806 126.92L26.369 129.356L23.779 126.766L21.324 129.221L18.925 126.824L16.463 129.286L13.969 126.792L11.277 129.483ZM8.859 126.668L11.276 129.086L13.968 126.394L16.462 128.888L18.924 126.426L21.323 128.824L23.778 126.369L26.368 128.959L28.805 126.523L29.787 127.505V126.156L28.805 125.174L26.368 127.611L23.778 125.021L21.323 127.477L18.924 125.079L16.462 127.542L13.968 125.047L11.276 127.74L8.859 125.322L6.524 127.657L6.026 127.085V128.402L6.538 128.991L8.859 126.668Z" fill="#AD8B5B"/>
<path d="M26.37 123.92L23.78 121.329L21.324 123.785L18.926 121.387L16.463 123.849L13.969 121.354L11.277 124.046L8.85901 121.63L6.53101 123.958L5.88501 123.215V124.961L6.53101 125.703L8.85901 123.376L11.277 125.793L13.969 123.1L16.463 125.595L18.926 123.133L21.324 125.531L23.78 123.075L26.37 125.665L28.807 123.229L29.93 124.352V122.605L28.807 121.482L26.37 123.92Z" fill="#5E1100"/>
<path d="M11.277 125.991L8.86 123.574L6.525 125.909L5.746 125.014V122.84L6.539 123.752L8.86 121.431L11.277 123.848L13.969 121.157L16.463 123.651L18.925 121.189L21.324 123.586L23.779 121.131L26.369 123.721L28.806 121.283L30.07 122.547V124.691L28.806 123.428L26.369 125.864L23.779 123.275L21.324 125.73L18.925 123.332L16.463 125.795L13.969 123.3L11.277 125.991ZM8.859 123.177L11.276 125.594L13.968 122.902L16.462 125.396L18.924 122.935L21.323 125.333L23.778 122.876L26.368 125.467L28.805 123.029L29.787 124.011V122.663L28.805 121.681L26.368 124.119L23.778 121.528L21.323 123.983L18.924 121.585L16.462 124.048L13.968 121.553L11.276 124.246L8.859 121.828L6.524 124.163L6.026 123.592V124.908L6.538 125.497L8.859 123.177Z" fill="#AD8B5B"/>
<path d="M26.37 122.174L23.78 119.583L21.324 122.039L18.926 119.642L16.463 122.103L13.969 119.608L11.277 122.302L8.85901 119.884L6.53101 122.212L5.88501 121.47V123.215L6.53101 123.958L8.85901 121.63L11.277 124.046L13.969 121.354L16.463 123.849L18.926 121.387L21.324 123.785L23.78 121.329L26.37 123.92L28.807 121.482L29.93 122.605V120.859L28.807 119.737L26.37 122.174Z" fill="#FFEEC0"/>
<path d="M11.277 124.246L8.86 121.828L6.525 124.163L5.746 123.267V121.092L6.539 122.005L8.86 119.684L11.277 122.102L13.969 119.41L16.463 121.904L18.925 119.441L21.324 121.839L23.779 119.384L26.369 121.974L28.806 119.537L30.07 120.801V122.944L28.806 121.68L26.369 124.118L23.779 121.527L21.324 123.982L18.925 121.584L16.463 124.047L13.969 121.552L11.277 124.246ZM8.859 121.431L11.276 123.848L13.968 121.157L16.462 123.651L18.924 121.189L21.323 123.586L23.778 121.131L26.368 123.721L28.805 121.283L29.787 122.266V120.917L28.805 119.935L26.368 122.372L23.778 119.782L21.323 122.238L18.924 119.84L16.462 122.302L13.968 119.807L11.276 122.5L8.859 120.083L6.524 122.418L6.026 121.845V123.163L6.538 123.752L8.859 121.431Z" fill="#AD8B5B"/>
<path d="M8.85901 109.408L11.277 111.825L13.969 109.134L16.463 111.627L18.926 109.165L21.324 111.563L23.78 109.107L26.37 111.698L28.807 109.262L29.93 110.385V108.639L28.807 107.516L26.37 109.952L23.78 107.362L21.324 109.817L18.926 107.42L16.463 109.882L13.969 107.388L11.277 110.08L8.85901 107.662L6.53101 109.99L5.88501 109.248V110.993L6.53101 111.736L8.85901 109.408Z" fill="#5E1100"/>
<path d="M11.277 112.024L8.86 109.606L6.525 111.942L5.746 111.046V108.872L6.539 109.785L8.86 107.463L11.277 109.881L13.969 107.189L16.463 109.683L18.925 107.221L21.324 109.619L23.779 107.163L26.369 109.754L28.806 107.316L30.07 108.58V110.724L28.806 109.46L26.369 111.897L23.779 109.307L21.324 111.763L18.925 109.365L16.463 111.827L13.969 109.333L11.277 112.024ZM8.859 109.209L11.276 111.627L13.968 108.935L16.462 111.429L18.924 108.967L21.323 111.365L23.778 108.91L26.368 111.5L28.805 109.063L29.787 110.045V108.696L28.805 107.714L26.368 110.152L23.778 107.561L21.323 110.017L18.924 107.619L16.462 110.081L13.968 107.587L11.276 110.279L8.859 107.862L6.524 110.198L6.026 109.625V110.942L6.538 111.531L8.859 109.209Z" fill="#AD8B5B"/>
<path d="M26.37 125.665L23.78 123.075L21.324 125.531L18.926 123.133L16.463 125.595L13.969 123.1L11.277 125.793L8.85901 123.376L6.53101 125.703L5.88501 124.961V126.707L6.53101 127.449L8.85901 125.121L11.277 127.539L13.969 124.846L16.463 127.341L18.926 124.878L21.324 127.276L23.78 124.821L26.37 127.411L28.807 124.975L29.93 126.098V124.352L28.807 123.229L26.37 125.665Z" fill="#FFEEC0"/>
<path d="M11.277 127.738L8.86 125.32L6.525 127.655L5.746 126.759V124.585L6.539 125.497L8.86 123.177L11.277 125.594L13.969 122.902L16.463 125.396L18.925 122.935L21.324 125.333L23.779 122.876L26.369 125.467L28.806 123.029L30.07 124.293V126.436L28.806 125.172L26.369 127.609L23.779 125.019L21.324 127.475L18.925 125.077L16.463 127.54L13.969 125.045L11.277 127.738ZM8.859 124.922L11.276 127.34L13.968 124.648L16.462 127.142L18.924 124.679L21.323 127.079L23.778 124.623L26.368 127.214L28.805 124.776L29.787 125.758V124.41L28.805 123.428L26.368 125.864L23.778 123.275L21.323 125.73L18.924 123.332L16.462 125.795L13.968 123.3L11.276 125.992L8.859 123.575L6.524 125.91L6.026 125.338V126.655L6.538 127.244L8.859 124.922Z" fill="#AD8B5B"/>
<path d="M26.37 120.427L23.78 117.837L21.324 120.293L18.926 117.895L16.463 120.357L13.969 117.862L11.277 120.556L8.85901 118.138L6.53101 120.466L5.88501 119.724V121.47L6.53101 122.212L8.85901 119.884L11.277 122.302L13.969 119.608L16.463 122.103L18.926 119.642L21.324 122.039L23.78 119.583L26.37 122.174L28.807 119.737L29.93 120.859V119.113L28.807 117.991L26.37 120.427Z" fill="#5E1100"/>
<path d="M11.277 122.5L8.86 120.083L6.525 122.418L5.746 121.522V119.348L6.539 120.26L8.86 117.939L11.277 120.357L13.969 117.665L16.463 120.159L18.925 117.697L21.324 120.096L23.779 117.64L26.369 120.23L28.806 117.793L30.07 119.057V121.201L28.806 119.937L26.369 122.374L23.779 119.784L21.324 122.24L18.925 119.842L16.463 122.304L13.969 119.809L11.277 122.5ZM8.859 119.685L11.276 122.103L13.968 119.411L16.462 121.905L18.924 119.442L21.323 121.84L23.778 119.385L26.368 121.975L28.805 119.538L29.787 120.52V119.171L28.805 118.189L26.368 120.626L23.778 118.036L21.323 120.492L18.924 118.094L16.462 120.556L13.968 118.062L11.276 120.754L8.859 118.337L6.524 120.672L6.026 120.1V121.417L6.538 122.006L8.859 119.685Z" fill="#AD8B5B"/>
<path d="M26.37 115.19L23.78 112.6L21.324 115.056L18.926 112.657L16.463 115.119L13.969 112.625L11.277 115.317L8.85901 112.899L6.53101 115.228L5.88501 114.485V116.231L6.53101 116.974L8.85901 114.646L11.277 117.063L13.969 114.371L16.463 116.865L18.926 114.403L21.324 116.801L23.78 114.346L26.37 116.937L28.807 114.499L29.93 115.622V113.876L28.807 112.753L26.37 115.19Z" fill="#FFEEC0"/>
<path d="M11.277 117.263L8.86 114.845L6.525 117.18L5.746 116.284V114.11L6.539 115.022L8.86 112.701L11.277 115.119L13.969 112.427L16.463 114.92L18.925 112.458L21.324 114.856L23.779 112.4L26.369 114.991L28.806 112.554L30.07 113.817V115.961L28.806 114.698L26.369 117.135L23.779 114.544L21.324 117L18.925 114.602L16.463 117.065L13.969 114.571L11.277 117.263ZM8.859 114.447L11.276 116.864L13.968 114.173L16.462 116.666L18.924 114.204L21.323 116.602L23.778 114.146L26.368 116.737L28.805 114.3L29.787 115.282V113.933L28.805 112.952L26.368 115.389L23.778 112.798L21.323 115.254L18.924 112.856L16.462 115.319L13.968 112.825L11.276 115.516L8.859 113.099L6.524 115.434L6.026 114.862V116.18L6.538 116.768L8.859 114.447Z" fill="#AD8B5B"/>
<path d="M28.807 109.262L26.37 111.698L23.78 109.107L21.324 111.563L18.926 109.165L16.463 111.627L13.969 109.134L11.277 111.825L8.85901 109.408L6.53101 111.736L5.88501 110.993V112.739L6.53101 113.482L8.85901 111.154L11.277 113.571L13.969 110.879L16.463 113.373L18.926 110.911L21.324 113.31L23.78 110.854L26.37 113.444L28.807 111.007L29.93 112.131V110.385L28.807 109.262Z" fill="#FFEEC0"/>
<path d="M11.277 113.771L8.86 111.353L6.525 113.688L5.746 112.792V110.618L6.539 111.53L8.86 109.209L11.277 111.627L13.969 108.935L16.463 111.429L18.925 108.967L21.324 111.365L23.779 108.91L26.369 111.5L28.806 109.063L30.07 110.327V112.471L28.806 111.207L26.369 113.645L23.779 111.054L21.324 113.51L18.925 111.112L16.463 113.574L13.969 111.08L11.277 113.771ZM8.859 110.955L11.276 113.373L13.968 110.681L16.462 113.175L18.924 110.713L21.323 113.111L23.778 110.654L26.368 113.245L28.805 110.808L29.787 111.79V110.441L28.805 109.459L26.368 111.896L23.778 109.306L21.323 111.762L18.924 109.364L16.462 111.826L13.968 109.332L11.276 112.024L8.859 109.606L6.524 111.942L6.026 111.37V112.687L6.538 113.276L8.859 110.955Z" fill="#AD8B5B"/>
<path d="M26.37 113.444L23.78 110.854L21.324 113.31L18.926 110.911L16.463 113.373L13.969 110.879L11.277 113.571L8.85901 111.154L6.53101 113.482L5.88501 112.739V114.485L6.53101 115.228L8.85901 112.899L11.277 115.317L13.969 112.625L16.463 115.119L18.926 112.657L21.324 115.056L23.78 112.6L26.37 115.19L28.807 112.753L29.93 113.876V112.131L28.807 111.007L26.37 113.444Z" fill="#5E1100"/>
<path d="M11.277 115.516L8.86 113.099L6.525 115.434L5.746 114.538V112.364L6.539 113.276L8.86 110.955L11.277 113.373L13.969 110.681L16.463 113.175L18.925 110.713L21.324 113.111L23.779 110.654L26.369 113.245L28.806 110.808L30.07 112.072V114.215L28.806 112.952L26.369 115.389L23.779 112.798L21.324 115.254L18.925 112.856L16.463 115.319L13.969 112.825L11.277 115.516ZM8.859 112.701L11.276 115.119L13.968 112.427L16.462 114.92L18.924 112.458L21.323 114.856L23.778 112.4L26.368 114.991L28.805 112.554L29.787 113.535V112.187L28.805 111.205L26.368 113.643L23.778 111.052L21.323 113.508L18.924 111.11L16.462 113.572L13.968 111.078L11.276 113.77L8.859 111.352L6.524 113.687L6.026 113.115V114.433L6.538 115.022L8.859 112.701Z" fill="#AD8B5B"/>
<path d="M26.37 118.682L23.78 116.092L21.324 118.547L18.926 116.148L16.463 118.611L13.969 116.117L11.277 118.81L8.85901 116.392L6.53101 118.72L5.88501 117.978V119.724L6.53101 120.466L8.85901 118.138L11.277 120.556L13.969 117.862L16.463 120.357L18.926 117.895L21.324 120.293L23.78 117.837L26.37 120.427L28.807 117.991L29.93 119.113V117.368L28.807 116.245L26.37 118.682Z" fill="#FFEEC0"/>
<path d="M11.277 120.754L8.86 118.337L6.525 120.672L5.746 119.776V117.602L6.539 118.514L8.86 116.194L11.277 118.611L13.969 115.919L16.463 118.413L18.925 115.951L21.324 118.349L23.779 115.893L26.369 118.483L28.806 116.046L30.07 117.31V119.454L28.806 118.19L26.369 120.627L23.779 118.037L21.324 120.493L18.925 118.095L16.463 120.557L13.969 118.063L11.277 120.754ZM8.859 117.938L11.276 120.356L13.968 117.664L16.462 120.158L18.924 117.696L21.323 120.095L23.778 117.639L26.368 120.229L28.805 117.792L29.787 118.774V117.425L28.805 116.444L26.368 118.88L23.778 116.29L21.323 118.746L18.924 116.348L16.462 118.81L13.968 116.316L11.276 119.009L8.859 116.591L6.524 118.926L6.026 118.354V119.67L6.538 120.26L8.859 117.938Z" fill="#AD8B5B"/>
<path d="M26.37 116.937L23.78 114.346L21.324 116.801L18.926 114.403L16.463 116.865L13.969 114.371L11.277 117.063L8.85901 114.646L6.53101 116.974L5.88501 116.231V117.978L6.53101 118.72L8.85901 116.392L11.277 118.81L13.969 116.117L16.463 118.611L18.926 116.148L21.324 118.547L23.78 116.092L26.37 118.682L28.807 116.245L29.93 117.368V115.622L28.807 114.499L26.37 116.937Z" fill="#5E1100"/>
<path d="M11.277 119.009L8.86 116.591L6.525 118.926L5.746 118.03V115.855L6.539 116.767L8.86 114.447L11.277 116.864L13.969 114.173L16.463 116.666L18.925 114.204L21.324 116.602L23.779 114.146L26.369 116.737L28.806 114.3L30.07 115.563V117.707L28.806 116.444L26.369 118.88L23.779 116.29L21.324 118.746L18.925 116.348L16.463 118.81L13.969 116.316L11.277 119.009ZM8.859 116.193L11.276 118.61L13.968 115.918L16.462 118.412L18.924 115.95L21.323 118.348L23.778 115.892L26.368 118.482L28.805 116.045L29.787 117.027V115.678L28.805 114.697L26.368 117.134L23.778 114.543L21.324 117L18.925 114.602L16.463 117.065L13.969 114.571L11.277 117.263L8.86 114.845L6.525 117.18L6.027 116.608V117.925L6.539 118.514L8.859 116.193Z" fill="#AD8B5B"/>
<path d="M17.908 160.608L12.953 164.167V187.273H23.107V164.482L17.908 160.608Z" fill="white"/>
<path d="M23.248 187.414H12.813V164.095L17.91 160.434L17.993 160.496L23.249 164.411V187.414H23.248ZM13.093 187.133H22.966V164.551L17.905 160.783L13.093 164.24V187.133Z" fill="#AD8B5B"/>
<path d="M17.911 161.444L13.112 164.893V187.273H22.947V165.196L17.911 161.444Z" fill="#2E0200"/>
<path d="M23.088 187.414H12.972V164.82L17.913 161.27L23.088 165.127V187.414ZM13.253 187.133H22.807V165.268L17.911 161.62L13.254 164.966L13.253 187.133Z" fill="#AD8B5B"/>
<path d="M32.32 184.264H3.496V187.274H32.32V184.264Z" fill="#FFEEC0"/>
<path d="M32.46 187.414H3.35501V184.123H32.46V187.414ZM3.63601 187.133H32.178V184.404H3.63601V187.133Z" fill="#AD8B5B"/>
<path d="M151.104 178.867H151.122C151.118 178.851 151.116 178.835 151.114 178.819C151.071 178.648 151.036 178.475 151.016 178.299C150.989 178.294 150.959 178.289 150.934 178.283C150.924 178.282 150.914 178.28 150.905 178.279C150.883 178.279 150.87 178.271 150.856 178.264C150.196 178.261 149.536 178.26 148.874 178.257C149.024 175.861 148.978 173.4 148.778 171.002H148.792C148.763 170.84 148.733 170.677 148.72 170.511C148.663 170.507 148.607 170.501 148.55 170.5C148.544 170.499 148.538 170.496 148.534 170.495C147.88 170.492 147.225 170.494 146.571 170.492C146.63 168.433 146.534 166.355 146.51 164.308C146.491 162.585 146.455 160.861 146.416 159.138C146.414 159.117 146.41 159.098 146.408 159.077C146.387 158.922 146.365 158.767 146.355 158.611C146.304 158.613 146.253 158.614 146.203 158.615C146.203 158.624 146.203 158.632 146.201 158.639C145.603 158.631 145.004 158.627 144.404 158.621C144.486 157.445 144.554 156.269 144.568 155.08C144.591 152.665 144.394 150.39 144.037 148.004C143.691 145.693 143.527 143.359 143.16 141.051C142.82 138.916 142.295 136.833 141.767 134.738C140.73 130.612 139.189 126.437 137.062 122.726C135.14 119.378 132.802 116.218 129.951 113.593C128.385 112.151 126.709 110.832 124.93 109.657C123.366 108.624 121.914 107.464 120.358 106.428C118.868 105.437 117.51 104.279 115.848 103.545C114.041 102.747 112.336 101.808 110.553 100.962C108.592 100.033 106.635 99.1139 104.694 98.1479C102.813 97.2129 101.051 96.0659 99.173 95.1249C95.181 93.1279 92.081 90.1709 89.017 87.0039C87.769 85.7149 86.553 84.3229 85.62 82.7749C85.423 82.5339 85.251 82.2689 85.084 82.0039C84.982 82.1919 84.872 82.3669 84.767 82.4769C83.814 84.1449 82.526 85.6329 81.199 87.0039C78.134 90.1719 75.036 93.1279 71.044 95.1249C69.163 96.0659 67.402 97.2139 65.522 98.1479C63.579 99.1149 61.623 100.034 59.663 100.962C57.879 101.808 56.173 102.747 54.367 103.545C52.706 104.278 51.347 105.437 49.857 106.428C48.3 107.464 46.85 108.624 45.284 109.657C43.505 110.832 41.829 112.15 40.263 113.593C37.412 116.218 35.073 119.378 33.153 122.726C31.025 126.437 29.485 130.612 28.447 134.738C27.921 136.833 27.394 138.916 27.055 141.051C26.688 143.36 26.523 145.693 26.178 148.004C25.821 150.39 25.623 152.665 25.648 155.08C25.661 156.284 25.731 157.476 25.815 158.668C25.291 158.675 24.767 158.679 24.243 158.688C24.243 158.676 24.243 158.667 24.243 158.656C24.167 158.662 24.092 158.661 24.017 158.654C24.016 158.666 24.016 158.678 24.016 158.69C24.001 158.691 23.986 158.691 23.972 158.692C23.973 158.764 23.973 158.838 23.973 158.912C23.986 158.912 24 158.912 24.013 158.912C23.993 160.363 23.977 161.813 23.959 163.264C23.928 165.685 23.815 168.163 23.882 170.606C22.088 170.622 20.294 170.645 18.5 170.672C18.47 170.696 18.434 170.712 18.394 170.708C18.252 170.691 18.109 170.684 17.965 170.679C17.945 170.679 17.925 170.679 17.905 170.68V170.678C17.834 170.676 17.763 170.676 17.692 170.675C17.692 170.678 17.691 170.681 17.691 170.684C17.678 170.684 17.665 170.685 17.652 170.685C17.65 170.725 17.649 170.766 17.645 170.806C17.659 170.806 17.673 170.806 17.687 170.806C17.582 173.336 17.511 175.891 17.644 178.407C16.945 178.414 16.247 178.419 15.548 178.427L15.547 178.412C15.498 178.423 15.447 178.432 15.398 178.441C15.363 178.906 15.336 179.372 15.282 179.834C15.28 179.857 15.272 179.878 15.263 179.897C14.97 184.535 15.094 189.208 15.081 193.85C15.065 199.214 15.073 204.58 15.123 209.946C15.215 219.987 15.119 230.041 15.322 240.081C15.314 240.081 15.305 240.081 15.297 240.082C15.303 240.17 15.312 240.258 15.321 240.347C15.459 240.373 15.597 240.397 15.736 240.416C22.749 240.504 29.774 240.416 36.779 240.426C38.718 240.429 40.656 240.432 42.595 240.436C42.619 240.418 42.646 240.406 42.674 240.404C42.987 240.383 43.294 240.374 43.599 240.437C50.64 240.449 57.681 240.461 64.721 240.462C83.359 240.467 101.998 240.471 120.635 240.475C130.662 240.478 140.695 240.551 150.725 240.493C150.746 240.481 150.77 240.473 150.793 240.473H151.113V239.994C151.113 239.989 151.113 239.983 151.113 239.978V239.498C151.113 239.484 151.117 239.471 151.121 239.457C151.309 229.58 151.221 219.689 151.31 209.812C151.359 204.441 151.367 199.07 151.353 193.699C151.334 188.77 151.498 183.791 151.104 178.867Z" fill="#969695"/>
<path d="M26.587 149.556C27.262 145.124 27.701 140.695 28.815 136.341C29.38 134.129 29.884 131.945 30.747 129.822C31.629 127.653 32.561 125.506 33.604 123.405C35.519 119.55 38.54 116.016 41.777 113.205C43.245 111.93 44.842 110.806 46.475 109.75C48.113 108.689 49.648 107.519 51.183 106.312C52.752 105.081 54.581 104.234 56.423 103.499C58.34 102.734 60.135 101.525 62.047 100.702C63.736 99.973 65.659 99.127 67.2 98.127C69.122 96.881 71.233 95.99 73.163 94.77C74.774 93.753 76.374 92.776 77.727 91.427C79.178 89.981 80.61 88.569 82.02 87.084C83.25 85.788 84.291 84.341 85.109 82.77C85.927 84.341 86.968 85.788 88.198 87.084C89.608 88.569 91.04 89.981 92.491 91.427C93.844 92.776 95.444 93.753 97.055 94.77C98.985 95.991 101.096 96.881 103.018 98.127C104.559 99.127 106.481 99.973 108.17 100.702C110.082 101.525 111.877 102.734 113.795 103.499C115.637 104.234 117.465 105.081 119.033 106.312C120.568 107.518 122.103 108.689 123.742 109.75C125.375 110.806 126.97 111.93 128.439 113.205C131.675 116.017 134.699 119.551 136.613 123.405C137.656 125.506 138.588 127.653 139.47 129.822C140.331 131.944 140.835 134.129 141.402 136.341C142.515 140.695 142.955 145.124 143.629 149.556C144.09 152.583 143.943 155.596 143.854 158.62C126.62 158.431 109.377 158.572 92.143 158.57C73.419 158.569 54.695 158.566 35.971 158.617C32.769 158.626 29.567 158.634 26.365 158.667C26.275 155.627 26.124 152.597 26.587 149.556Z" fill="#007A00"/>
<path d="M25.832 158.944C25.832 158.952 25.833 158.959 25.833 158.965C26.013 158.956 26.192 158.957 26.372 158.962C26.372 158.959 26.372 158.955 26.372 158.953C43.012 159.241 59.677 159.015 76.314 159.022C95.035 159.032 113.756 159.025 132.475 159.024C137.049 159.024 141.621 159.006 146.194 158.954C146.155 160.767 146.122 162.579 146.092 164.394C146.061 166.408 145.967 168.462 146.026 170.494C140.378 170.49 134.727 170.547 129.083 170.546C119.72 170.546 110.356 170.542 100.993 170.545C82.263 170.552 63.533 170.558 44.804 170.564C37.989 170.566 31.172 170.548 24.356 170.605C24.409 168.324 24.298 166.017 24.292 163.75C24.289 162.14 24.272 160.53 24.245 158.92C24.774 158.931 25.303 158.936 25.832 158.944Z" fill="#007A00"/>
<path d="M23.888 170.903C23.888 170.916 23.889 170.929 23.89 170.942C24.258 170.879 24.628 170.89 25.002 170.893C25.035 170.893 25.058 170.903 25.077 170.916C40.423 171.086 55.779 170.938 71.121 170.943C89.848 170.949 108.577 170.953 127.303 170.952C133.545 170.951 139.797 171.017 146.047 171.008V171.027C146.143 171.023 146.236 171.026 146.33 171.034C146.402 171.028 146.475 171.025 146.547 171.026C146.547 171.02 146.547 171.014 146.547 171.008C147.235 171.006 147.92 171.008 148.608 171.004C148.413 173.4 148.354 175.861 148.504 178.257C119.444 178.153 90.381 178.252 61.322 178.269C55.242 178.273 49.162 178.272 43.081 178.28C43.081 178.276 43.081 178.272 43.08 178.267C43.029 178.267 42.978 178.266 42.927 178.261C42.926 178.267 42.926 178.274 42.925 178.28C34.598 178.292 26.272 178.325 17.946 178.407C18.079 175.893 18.012 173.341 17.907 170.813C19.901 170.851 21.895 170.879 23.888 170.903Z" fill="#007A00"/>
<path d="M15.584 240.079C15.787 229.997 15.691 219.9 15.784 209.816C15.833 204.445 15.842 199.074 15.826 193.703C15.812 188.725 15.978 183.699 15.57 178.732C21.982 178.815 28.395 178.873 34.808 178.911C36.382 181.019 37.821 183.235 39.437 185.322C40.211 186.32 40.947 187.347 41.725 188.342C42.055 188.764 42.268 189.297 42.618 189.7C42.624 191.086 42.632 192.471 42.628 193.853C42.613 199.217 42.62 204.583 42.67 209.949C42.763 219.98 42.666 230.026 42.869 240.058C33.78 240.039 24.673 239.933 15.584 240.079Z" fill="url(#paint0_linear_103_3)"/>
<path d="M42.911 189.545C41.88 187.857 40.553 186.272 39.34 184.719C37.874 182.844 36.584 180.678 34.968 178.912C37.551 178.929 40.135 178.941 42.718 178.951C42.749 178.926 42.783 178.907 42.822 178.907H43.314C43.364 178.907 43.395 178.925 43.414 178.954C46.331 178.965 49.249 178.972 52.166 178.975C50.613 180.749 48.966 182.443 47.489 184.281C46.787 185.156 46.117 186.052 45.384 186.901C44.777 187.605 43.998 189.276 43.109 189.694C43.042 189.645 42.976 189.596 42.911 189.545Z" fill="#EBF2DE"/>
<path d="M150.6 193.854C150.584 199.218 150.592 204.584 150.643 209.95C150.735 219.962 150.639 229.987 150.84 239.998C134.658 239.87 118.467 240.026 102.285 240.03C83.644 240.034 65.003 240.037 46.362 240.062C45.287 240.063 44.21 240.06 43.134 240.059C43.337 229.983 43.241 219.893 43.334 209.817C43.383 204.446 43.391 199.075 43.376 193.704C43.373 192.431 43.381 191.157 43.388 189.88C43.34 189.853 43.295 189.82 43.249 189.79C43.705 189.563 44.046 189.018 44.337 188.648C45.249 187.493 46.207 186.375 47.111 185.213C48.804 183.04 50.698 181.041 52.521 178.978C74.699 179.012 96.879 178.897 119.051 178.897C129.651 178.897 140.25 178.897 150.85 178.87C150.463 183.844 150.615 188.868 150.6 193.854Z" fill="url(#paint1_linear_103_3)"/>
<path d="M67.944 178.845V175.809C67.944 175.809 67.874 173.019 70.404 173.019C70.404 173.019 72.864 173.019 72.864 175.921V178.845H67.944Z" fill="#969695"/>
<path d="M68.055 178.845V175.945C68.055 175.945 67.987 173.281 70.404 173.281C70.404 173.281 72.754 173.281 72.754 176.052V178.844H68.055V178.845Z" fill="#005227"/>
<path d="M19.154 178.845V175.809C19.154 175.809 19.084 173.019 21.615 173.019C21.615 173.019 24.075 173.019 24.075 175.921V178.845H19.154Z" fill="#969695"/>
<path d="M19.265 178.845V175.945C19.265 175.945 19.198 173.281 21.615 173.281C21.615 173.281 23.965 173.281 23.965 176.052V178.844H19.265V178.845Z" fill="#005227"/>
<path d="M31.352 178.845V175.809C31.352 175.809 31.282 173.019 33.812 173.019C33.812 173.019 36.272 173.019 36.272 175.921V178.845H31.352Z" fill="#969695"/>
<path d="M31.462 178.845V175.945C31.462 175.945 31.395 173.281 33.812 173.281C33.812 173.281 36.161 173.281 36.161 176.052V178.844H31.462V178.845Z" fill="#005227"/>
<path d="M43.549 178.845V175.809C43.549 175.809 43.479 173.019 46.009 173.019C46.009 173.019 48.469 173.019 48.469 175.921V178.845H43.549Z" fill="#969695"/>
<path d="M43.66 178.845V175.945C43.66 175.945 43.593 173.281 46.01 173.281C46.01 173.281 48.36 173.281 48.36 176.052V178.844H43.66V178.845Z" fill="#005227"/>
<path d="M55.747 178.845V175.809C55.747 175.809 55.677 173.019 58.207 173.019C58.207 173.019 60.667 173.019 60.667 175.921V178.845H55.747Z" fill="#969695"/>
<path d="M55.858 178.845V175.945C55.858 175.945 55.791 173.281 58.207 173.281C58.207 173.281 60.557 173.281 60.557 176.052V178.844H55.858V178.845Z" fill="#005227"/>
<path d="M116.734 178.845V175.809C116.734 175.809 116.664 173.019 119.195 173.019C119.195 173.019 121.654 173.019 121.654 175.921V178.845H116.734Z" fill="#969695"/>
<path d="M116.846 178.845V175.945C116.846 175.945 116.778 173.281 119.196 173.281C119.196 173.281 121.546 173.281 121.546 176.052V178.844H116.846V178.845Z" fill="#005227"/>
<path d="M80.141 178.845V175.809C80.141 175.809 80.071 173.019 82.602 173.019C82.602 173.019 85.062 173.019 85.062 175.921V178.845H80.141Z" fill="#969695"/>
<path d="M80.253 178.845V175.945C80.253 175.945 80.186 173.281 82.602 173.281C82.602 173.281 84.952 173.281 84.952 176.052V178.844H80.253V178.845Z" fill="#005227"/>
<path d="M92.338 178.845V175.809C92.338 175.809 92.268 173.019 94.799 173.019C94.799 173.019 97.26 173.019 97.26 175.921V178.845H92.338Z" fill="#969695"/>
<path d="M92.449 178.845V175.945C92.449 175.945 92.382 173.281 94.799 173.281C94.799 173.281 97.149 173.281 97.149 176.052V178.844H92.449V178.845Z" fill="#005227"/>
<path d="M104.537 178.845V175.809C104.537 175.809 104.467 173.019 106.996 173.019C106.996 173.019 109.457 173.019 109.457 175.921V178.845H104.537Z" fill="#969695"/>
<path d="M104.646 178.845V175.945C104.646 175.945 104.58 173.281 106.996 173.281C106.996 173.281 109.346 173.281 109.346 176.052V178.844H104.646V178.845Z" fill="#005227"/>
<path d="M128.932 178.845V175.809C128.932 175.809 128.862 173.019 131.391 173.019C131.391 173.019 133.852 173.019 133.852 175.921V178.845H128.932Z" fill="#969695"/>
<path d="M129.041 178.845V175.945C129.041 175.945 128.975 173.281 131.391 173.281C131.391 173.281 133.741 173.281 133.741 176.052V178.844H129.041V178.845Z" fill="#005227"/>
<path d="M141.129 178.845V175.809C141.129 175.809 141.059 173.019 143.588 173.019C143.588 173.019 146.049 173.019 146.049 175.921V178.845H141.129Z" fill="#969695"/>
<path d="M141.24 178.845V175.945C141.24 175.945 141.172 173.281 143.588 173.281C143.588 173.281 145.938 173.281 145.938 176.052V178.844H141.24V178.845Z" fill="#005227"/>
<path d="M25.43 170.563V167.695C25.43 167.695 25.387 165.059 26.944 165.059C26.944 165.059 28.458 165.059 28.458 167.801V170.563H25.43Z" fill="#969695"/>
<path d="M25.499 170.563V167.825C25.499 167.825 25.457 165.307 26.944 165.307C26.944 165.307 28.389 165.307 28.389 167.926V170.563H25.499Z" fill="white"/>
<path d="M29 170.563V167.695C29 167.695 28.957 165.059 30.514 165.059C30.514 165.059 32.028 165.059 32.028 167.801V170.563H29Z" fill="#969695"/>
<path d="M29.068 170.563V167.825C29.068 167.825 29.026 165.307 30.513 165.307C30.513 165.307 31.958 165.307 31.958 167.926V170.563H29.068Z" fill="white"/>
<path d="M25.43 170.563V167.695C25.43 167.695 25.387 165.059 26.944 165.059C26.944 165.059 28.458 165.059 28.458 167.801V170.563H25.43Z" fill="#969695"/>
<path d="M25.499 170.563V167.825C25.499 167.825 25.457 165.307 26.944 165.307C26.944 165.307 28.389 165.307 28.389 167.926V170.563H25.499Z" fill="#005227"/>
<path d="M29 170.563V167.695C29 167.695 28.957 165.059 30.514 165.059C30.514 165.059 32.028 165.059 32.028 167.801V170.563H29Z" fill="#969695"/>
<path d="M29.068 170.563V167.825C29.068 167.825 29.026 165.307 30.513 165.307C30.513 165.307 31.958 165.307 31.958 167.926V170.563H29.068Z" fill="#005227"/>
<path d="M37.913 170.563V167.695C37.913 167.695 37.87 165.059 39.426 165.059C39.426 165.059 40.94 165.059 40.94 167.801V170.563H37.913Z" fill="#969695"/>
<path d="M37.982 170.563V167.825C37.982 167.825 37.94 165.307 39.427 165.307C39.427 165.307 40.873 165.307 40.873 167.926V170.563H37.982Z" fill="white"/>
<path d="M41.483 170.563V167.695C41.483 167.695 41.439 165.059 42.997 165.059C42.997 165.059 44.511 165.059 44.511 167.801V170.563H41.483Z" fill="#969695"/>
<path d="M41.551 170.563V167.825C41.551 167.825 41.51 165.307 42.996 165.307C42.996 165.307 44.441 165.307 44.441 167.926V170.563H41.551Z" fill="white"/>
<path d="M37.913 170.563V167.695C37.913 167.695 37.87 165.059 39.426 165.059C39.426 165.059 40.94 165.059 40.94 167.801V170.563H37.913Z" fill="#969695"/>
<path d="M37.982 170.563V167.825C37.982 167.825 37.94 165.307 39.427 165.307C39.427 165.307 40.873 165.307 40.873 167.926V170.563H37.982Z" fill="#005227"/>
<path d="M41.483 170.563V167.695C41.483 167.695 41.439 165.059 42.997 165.059C42.997 165.059 44.511 165.059 44.511 167.801V170.563H41.483Z" fill="#969695"/>
<path d="M41.551 170.563V167.825C41.551 167.825 41.51 165.307 42.996 165.307C42.996 165.307 44.441 165.307 44.441 167.926V170.563H41.551Z" fill="#005227"/>
<path d="M50.396 170.563V167.695C50.396 167.695 50.353 165.059 51.909 165.059C51.909 165.059 53.423 165.059 53.423 167.801V170.563H50.396Z" fill="#969695"/>
<path d="M50.464 170.563V167.825C50.464 167.825 50.422 165.307 51.909 165.307C51.909 165.307 53.355 165.307 53.355 167.926V170.563H50.464Z" fill="white"/>
<path d="M53.965 170.563V167.695C53.965 167.695 53.922 165.059 55.479 165.059C55.479 165.059 56.993 165.059 56.993 167.801V170.563H53.965Z" fill="#969695"/>
<path d="M54.033 170.563V167.825C54.033 167.825 53.991 165.307 55.478 165.307C55.478 165.307 56.923 165.307 56.923 167.926V170.563H54.033Z" fill="white"/>
<path d="M50.396 170.563V167.695C50.396 167.695 50.353 165.059 51.909 165.059C51.909 165.059 53.423 165.059 53.423 167.801V170.563H50.396Z" fill="#969695"/>
<path d="M50.464 170.563V167.825C50.464 167.825 50.422 165.307 51.909 165.307C51.909 165.307 53.355 165.307 53.355 167.926V170.563H50.464Z" fill="#005227"/>
<path d="M53.965 170.563V167.695C53.965 167.695 53.922 165.059 55.479 165.059C55.479 165.059 56.993 165.059 56.993 167.801V170.563H53.965Z" fill="#969695"/>
<path d="M54.033 170.563V167.825C54.033 167.825 53.991 165.307 55.478 165.307C55.478 165.307 56.923 165.307 56.923 167.926V170.563H54.033Z" fill="#005227"/>
<path d="M62.878 170.563V167.695C62.878 167.695 62.835 165.059 64.391 165.059C64.391 165.059 65.905 165.059 65.905 167.801V170.563H62.878Z" fill="#969695"/>
<path d="M62.946 170.563V167.825C62.946 167.825 62.905 165.307 64.391 165.307C64.391 165.307 65.837 165.307 65.837 167.926V170.563H62.946Z" fill="white"/>
<path d="M66.447 170.563V167.695C66.447 167.695 66.404 165.059 67.961 165.059C67.961 165.059 69.474 165.059 69.474 167.801V170.563H66.447Z" fill="#969695"/>
<path d="M66.515 170.563V167.825C66.515 167.825 66.474 165.307 67.961 165.307C67.961 165.307 69.406 165.307 69.406 167.926V170.563H66.515Z" fill="white"/>
<path d="M62.878 170.563V167.695C62.878 167.695 62.835 165.059 64.391 165.059C64.391 165.059 65.905 165.059 65.905 167.801V170.563H62.878Z" fill="#969695"/>
<path d="M62.946 170.563V167.825C62.946 167.825 62.905 165.307 64.391 165.307C64.391 165.307 65.837 165.307 65.837 167.926V170.563H62.946Z" fill="#005227"/>
<path d="M66.447 170.563V167.695C66.447 167.695 66.404 165.059 67.961 165.059C67.961 165.059 69.474 165.059 69.474 167.801V170.563H66.447Z" fill="#969695"/>
<path d="M66.515 170.563V167.825C66.515 167.825 66.474 165.307 67.961 165.307C67.961 165.307 69.406 165.307 69.406 167.926V170.563H66.515Z" fill="#005227"/>
<path d="M100.324 170.563V167.695C100.324 167.695 100.281 165.059 101.838 165.059C101.838 165.059 103.352 165.059 103.352 167.801V170.563H100.324Z" fill="#969695"/>
<path d="M100.393 170.563V167.825C100.393 167.825 100.352 165.307 101.838 165.307C101.838 165.307 103.283 165.307 103.283 167.926V170.563H100.393Z" fill="white"/>
<path d="M103.895 170.563V167.695C103.895 167.695 103.852 165.059 105.409 165.059C105.409 165.059 106.923 165.059 106.923 167.801V170.563H103.895Z" fill="#969695"/>
<path d="M103.963 170.563V167.825C103.963 167.825 103.92 165.307 105.408 165.307C105.408 165.307 106.853 165.307 106.853 167.926V170.563H103.963Z" fill="white"/>
<path d="M100.324 170.563V167.695C100.324 167.695 100.281 165.059 101.838 165.059C101.838 165.059 103.352 165.059 103.352 167.801V170.563H100.324Z" fill="#969695"/>
<path d="M100.393 170.563V167.825C100.393 167.825 100.352 165.307 101.838 165.307C101.838 165.307 103.283 165.307 103.283 167.926V170.563H100.393Z" fill="#005227"/>
<path d="M103.895 170.563V167.695C103.895 167.695 103.852 165.059 105.409 165.059C105.409 165.059 106.923 165.059 106.923 167.801V170.563H103.895Z" fill="#969695"/>
<path d="M103.963 170.563V167.825C103.963 167.825 103.92 165.307 105.408 165.307C105.408 165.307 106.853 165.307 106.853 167.926V170.563H103.963Z" fill="#005227"/>
<path d="M112.807 170.563V167.695C112.807 167.695 112.764 165.059 114.321 165.059C114.321 165.059 115.835 165.059 115.835 167.801V170.563H112.807Z" fill="#969695"/>
<path d="M112.875 170.563V167.825C112.875 167.825 112.834 165.307 114.32 165.307C114.32 165.307 115.765 165.307 115.765 167.926V170.563H112.875Z" fill="white"/>
<path d="M116.377 170.563V167.695C116.377 167.695 116.332 165.059 117.891 165.059C117.891 165.059 119.405 165.059 119.405 167.801V170.563H116.377Z" fill="#969695"/>
<path d="M116.445 170.563V167.825C116.445 167.825 116.402 165.307 117.89 165.307C117.89 165.307 119.335 165.307 119.335 167.926V170.563H116.445Z" fill="white"/>
<path d="M112.807 170.563V167.695C112.807 167.695 112.764 165.059 114.321 165.059C114.321 165.059 115.835 165.059 115.835 167.801V170.563H112.807Z" fill="#969695"/>
<path d="M112.875 170.563V167.825C112.875 167.825 112.834 165.307 114.32 165.307C114.32 165.307 115.765 165.307 115.765 167.926V170.563H112.875Z" fill="#005227"/>
<path d="M116.377 170.563V167.695C116.377 167.695 116.332 165.059 117.891 165.059C117.891 165.059 119.405 165.059 119.405 167.801V170.563H116.377Z" fill="#969695"/>
<path d="M116.445 170.563V167.825C116.445 167.825 116.402 165.307 117.89 165.307C117.89 165.307 119.335 165.307 119.335 167.926V170.563H116.445Z" fill="#005227"/>
<path d="M75.36 170.563V167.695C75.36 167.695 75.317 165.059 76.874 165.059C76.874 165.059 78.388 165.059 78.388 167.801V170.563H75.36Z" fill="#969695"/>
<path d="M75.428 170.563V167.825C75.428 167.825 75.386 165.307 76.873 165.307C76.873 165.307 78.319 165.307 78.319 167.926V170.563H75.428Z" fill="white"/>
<path d="M78.929 170.563V167.695C78.929 167.695 78.886 165.059 80.443 165.059C80.443 165.059 81.956 165.059 81.956 167.801V170.563H78.929Z" fill="#969695"/>
<path d="M78.998 170.563V167.825C78.998 167.825 78.957 165.307 80.444 165.307C80.444 165.307 81.889 165.307 81.889 167.926V170.563H78.998Z" fill="white"/>
<path d="M75.36 170.563V167.695C75.36 167.695 75.317 165.059 76.874 165.059C76.874 165.059 78.388 165.059 78.388 167.801V170.563H75.36Z" fill="#969695"/>
<path d="M75.428 170.563V167.825C75.428 167.825 75.386 165.307 76.873 165.307C76.873 165.307 78.319 165.307 78.319 167.926V170.563H75.428Z" fill="#005227"/>
<path d="M78.929 170.563V167.695C78.929 167.695 78.886 165.059 80.443 165.059C80.443 165.059 81.956 165.059 81.956 167.801V170.563H78.929Z" fill="#969695"/>
<path d="M78.998 170.563V167.825C78.998 167.825 78.957 165.307 80.444 165.307C80.444 165.307 81.889 165.307 81.889 167.926V170.563H78.998Z" fill="#005227"/>
<path d="M87.842 170.563V167.695C87.842 167.695 87.799 165.059 89.356 165.059C89.356 165.059 90.87 165.059 90.87 167.801V170.563H87.842Z" fill="#969695"/>
<path d="M87.91 170.563V167.825C87.91 167.825 87.869 165.307 89.355 165.307C89.355 165.307 90.8 165.307 90.8 167.926V170.563H87.91Z" fill="white"/>
<path d="M91.412 170.563V167.695C91.412 167.695 91.369 165.059 92.926 165.059C92.926 165.059 94.44 165.059 94.44 167.801V170.563H91.412Z" fill="#969695"/>
<path d="M91.48 170.563V167.825C91.48 167.825 91.437 165.307 92.925 165.307C92.925 165.307 94.37 165.307 94.37 167.926V170.563H91.48Z" fill="white"/>
<path d="M87.842 170.563V167.695C87.842 167.695 87.799 165.059 89.356 165.059C89.356 165.059 90.87 165.059 90.87 167.801V170.563H87.842Z" fill="#969695"/>
<path d="M87.91 170.563V167.825C87.91 167.825 87.869 165.307 89.355 165.307C89.355 165.307 90.8 165.307 90.8 167.926V170.563H87.91Z" fill="#005227"/>
<path d="M91.412 170.563V167.695C91.412 167.695 91.369 165.059 92.926 165.059C92.926 165.059 94.44 165.059 94.44 167.801V170.563H91.412Z" fill="#969695"/>
<path d="M91.48 170.563V167.825C91.48 167.825 91.437 165.307 92.925 165.307C92.925 165.307 94.37 165.307 94.37 167.926V170.563H91.48Z" fill="#005227"/>
<path d="M125.289 170.563V167.695C125.289 167.695 125.246 165.059 126.803 165.059C126.803 165.059 128.317 165.059 128.317 167.801V170.563H125.289Z" fill="#969695"/>
<path d="M125.357 170.563V167.825C125.357 167.825 125.316 165.307 126.802 165.307C126.802 165.307 128.247 165.307 128.247 167.926V170.563H125.357Z" fill="white"/>
<path d="M128.859 170.563V167.695C128.859 167.695 128.816 165.059 130.373 165.059C130.373 165.059 131.887 165.059 131.887 167.801V170.563H128.859Z" fill="#969695"/>
<path d="M128.928 170.563V167.825C128.928 167.825 128.885 165.307 130.373 165.307C130.373 165.307 131.818 165.307 131.818 167.926V170.563H128.928Z" fill="white"/>
<path d="M125.289 170.563V167.695C125.289 167.695 125.246 165.059 126.803 165.059C126.803 165.059 128.317 165.059 128.317 167.801V170.563H125.289Z" fill="#969695"/>
<path d="M125.357 170.563V167.825C125.357 167.825 125.316 165.307 126.802 165.307C126.802 165.307 128.247 165.307 128.247 167.926V170.563H125.357Z" fill="#005227"/>
<path d="M128.859 170.563V167.695C128.859 167.695 128.816 165.059 130.373 165.059C130.373 165.059 131.887 165.059 131.887 167.801V170.563H128.859Z" fill="#969695"/>
<path d="M128.928 170.563V167.825C128.928 167.825 128.885 165.307 130.373 165.307C130.373 165.307 131.818 165.307 131.818 167.926V170.563H128.928Z" fill="#005227"/>
<path d="M137.771 170.563V167.695C137.771 167.695 137.728 165.059 139.285 165.059C139.285 165.059 140.799 165.059 140.799 167.801V170.563H137.771Z" fill="#969695"/>
<path d="M137.84 170.563V167.825C137.84 167.825 137.799 165.307 139.285 165.307C139.285 165.307 140.73 165.307 140.73 167.926V170.563H137.84Z" fill="white"/>
<path d="M141.342 170.563V167.695C141.342 167.695 141.297 165.059 142.856 165.059C142.856 165.059 144.37 165.059 144.37 167.801V170.563H141.342Z" fill="#969695"/>
<path d="M141.41 170.563V167.825C141.41 167.825 141.367 165.307 142.855 165.307C142.855 165.307 144.3 165.307 144.3 167.926V170.563H141.41Z" fill="white"/>
<path d="M137.771 170.563V167.695C137.771 167.695 137.728 165.059 139.285 165.059C139.285 165.059 140.799 165.059 140.799 167.801V170.563H137.771Z" fill="#969695"/>
<path d="M137.84 170.563V167.825C137.84 167.825 137.799 165.307 139.285 165.307C139.285 165.307 140.73 165.307 140.73 167.926V170.563H137.84Z" fill="#005227"/>
<path d="M141.342 170.563V167.695C141.342 167.695 141.297 165.059 142.856 165.059C142.856 165.059 144.37 165.059 144.37 167.801V170.563H141.342Z" fill="#969695"/>
<path d="M141.41 170.563V167.825C141.41 167.825 141.367 165.307 142.855 165.307C142.855 165.307 144.3 165.307 144.3 167.926V170.563H141.41Z" fill="#005227"/>
<path d="M28.927 158.998L28.859 153.893C29.338 138.428 32.613 127.316 39.163 118.916C45.382 110.943 54.013 106.105 63.055 101.451C72.898 96.3849 78.333 91.5029 81.16 88.2989C84.221 84.8299 84.965 82.5289 84.972 82.5059L85.241 82.5899C85.213 82.6819 82.138 91.9449 63.184 101.701C54.171 106.34 45.569 111.161 39.386 119.09C32.874 127.44 29.618 138.499 29.141 153.896L29.209 158.995L28.927 158.998Z" fill="#005425"/>
<path d="M34.25 158.998L34.188 153.893C34.622 138.431 37.584 127.321 43.51 118.922C49.137 110.947 56.948 106.109 65.13 101.453C74.034 96.3888 78.955 91.5088 81.515 88.3078C84.287 84.8418 84.964 82.5428 84.971 82.5198L85.241 82.5968C85.214 82.6918 84.55 84.9588 81.75 88.4638C79.175 91.6888 74.225 96.6028 65.269 101.698C57.116 106.337 49.334 111.156 43.741 119.084C37.848 127.435 34.903 138.496 34.47 153.895L34.532 158.995L34.25 158.998Z" fill="#005425"/>
<path d="M39.574 158.998L39.519 153.893C39.907 138.434 42.557 127.326 47.858 118.928C52.893 110.952 59.882 106.113 67.204 101.457C75.181 96.3859 79.59 91.5029 81.883 88.2999C84.361 84.8399 84.964 82.5569 84.969 82.5339L85.241 82.6039C85.217 82.6979 84.619 84.9609 82.111 88.4629C79.803 91.6869 75.369 96.5979 67.355 101.694C60.061 106.331 53.099 111.15 48.095 119.077C42.822 127.429 40.186 138.493 39.799 153.893L39.854 158.993L39.574 158.998Z" fill="#005425"/>
<path d="M44.898 158.998L44.849 153.892C45.577 121.039 55.433 111.44 69.279 101.462C76.307 96.3968 80.2 91.5238 82.227 88.3278C84.423 84.8658 84.964 82.5718 84.97 82.5488L85.244 82.6118C85.239 82.6348 84.691 84.9648 82.474 88.4638C80.433 91.6848 76.516 96.5948 69.443 101.691C63.008 106.329 56.867 111.147 52.451 119.073C47.798 127.427 45.471 138.492 45.13 153.895L45.179 158.997L44.898 158.998Z" fill="#005425"/>
<path d="M50.221 158.997L50.179 153.892C50.809 121.045 59.352 111.446 71.352 101.469C83.008 91.777 84.951 82.654 84.969 82.563L85.245 82.618C85.226 82.71 83.271 91.923 71.532 101.684C65.955 106.32 60.633 111.138 56.807 119.064C52.773 127.419 50.756 138.486 50.461 153.893L50.503 158.995L50.221 158.997Z" fill="#005425"/>
<path d="M55.545 158.997L55.509 153.892C56.043 121.052 63.27 111.453 73.424 101.477C83.287 91.7839 84.953 82.6679 84.968 82.5779L85.246 82.6259C85.23 82.7179 83.554 91.9169 73.621 101.677C63.516 111.607 56.323 121.164 55.791 153.894L55.827 158.997H55.545Z" fill="#005425"/>
<path d="M60.868 158.997L60.839 153.892C61.275 121.06 67.188 111.462 75.494 101.487C81.952 93.7288 84.515 85.7358 84.967 82.5918L85.245 82.6318C85.232 82.7228 83.836 91.9058 75.709 101.666C67.441 111.597 61.554 121.156 61.119 153.893L61.148 158.996L60.868 158.997Z" fill="#005425"/>
<path d="M66.192 158.996L66.169 153.892C66.509 121.068 71.107 111.473 77.565 101.5C83.848 91.798 84.956 82.697 84.967 82.606L85.246 82.638C85.235 82.729 84.119 91.896 77.801 101.652C71.368 111.585 66.789 121.146 66.45 153.891L66.473 158.995L66.192 158.996Z" fill="#005425"/>
<path d="M71.515 158.996L71.499 153.892C71.741 121.079 75.024 111.486 79.636 101.518C84.127 91.8098 84.959 82.7118 84.967 82.6208L85.247 82.6459C85.239 82.7369 84.402 91.8838 79.891 101.635C75.294 111.571 72.022 121.137 71.78 153.892L71.796 158.996H71.515Z" fill="#005425"/>
<path d="M76.838 158.996L76.828 153.891C76.974 121.089 78.942 111.502 81.707 101.539C84.403 91.8248 84.961 82.7258 84.965 82.6348L85.246 82.6508C85.241 82.7418 84.682 91.8698 81.978 101.613C79.218 111.555 77.254 121.125 77.109 153.891L77.119 158.995H76.838V158.996Z" fill="#005425"/>
<path d="M82.162 158.996L82.159 153.891C82.207 121.099 82.863 111.518 83.784 101.564C84.684 91.8389 84.963 82.7409 84.966 82.6499L85.247 82.6579C85.244 82.7489 84.964 91.8559 84.064 101.589C83.144 111.537 82.488 121.111 82.439 153.891L82.442 158.996H82.162Z" fill="#005425"/>
<path d="M87.767 158.996H87.486L87.489 153.891C87.441 121.115 86.786 111.538 85.865 101.589C84.964 91.8528 84.967 82.7548 84.967 82.6638H85.248C85.248 82.7548 85.246 91.8408 86.145 101.563C87.066 111.52 87.722 121.101 87.77 153.889L87.767 158.996Z" fill="#005425"/>
<path d="M93.09 158.996H92.809L92.819 153.89C92.674 121.125 90.71 111.556 87.95 101.614C85.245 91.8689 84.969 82.7699 84.967 82.6789L85.248 82.6709C85.25 82.7619 85.526 91.8269 88.222 101.539C90.988 111.502 92.956 121.089 93.101 153.89L93.09 158.996Z" fill="#005425"/>
<path d="M98.414 158.996L98.131 158.995L98.149 153.89C97.907 121.137 94.635 111.573 90.038 101.635C85.527 91.882 84.972 82.784 84.967 82.694L85.247 82.678C85.252 82.769 85.805 91.815 90.293 101.518C94.904 111.487 98.188 121.079 98.43 153.89L98.414 158.996Z" fill="#005425"/>
<path d="M103.736 158.996L103.455 158.995L103.478 153.89C103.14 121.147 98.56 111.585 92.128 101.653C85.807 91.8948 84.973 82.7988 84.965 82.7088L85.245 82.6848C85.253 82.7748 86.083 91.8048 92.362 101.501C98.821 111.474 103.419 121.068 103.758 153.89L103.736 158.996Z" fill="#005425"/>
<path d="M109.061 158.997L108.78 158.995L108.809 153.89C108.373 121.157 102.487 111.597 94.219 101.666C86.091 91.9049 84.977 82.8129 84.967 82.7219L85.246 82.6899C85.256 82.7799 86.363 91.7939 94.434 101.486C102.741 111.462 108.655 121.059 109.09 153.888L109.061 158.997Z" fill="#005425"/>
<path d="M114.385 158.997L114.102 158.995L114.139 153.89C113.606 121.163 106.412 111.606 96.309 101.676C86.373 91.9138 84.98 82.8278 84.968 82.7368L85.246 82.6978C85.259 82.7868 86.643 91.7858 96.506 101.477C106.658 111.453 113.887 121.052 114.42 153.889L114.385 158.997Z" fill="#005425"/>
<path d="M119.707 158.997L119.426 158.995L119.469 153.89C119.172 138.487 117.157 127.42 113.121 119.065C109.295 111.139 103.975 106.321 98.396 101.685C92.265 96.5859 88.943 91.7159 87.234 88.5279C85.379 85.0659 84.971 82.7749 84.967 82.7519L85.244 82.7039C85.259 82.7939 86.923 91.7789 98.575 101.469C110.575 111.445 119.118 121.045 119.749 153.888L119.707 158.997Z" fill="#005425"/>
<path d="M125.031 158.998L124.75 158.995L124.799 153.889C124.457 138.491 122.131 127.426 117.477 119.072C113.063 111.146 106.92 106.328 100.487 101.69C93.413 96.5929 89.573 91.7259 87.596 88.5409C85.449 85.0799 84.987 82.8589 84.969 82.7659L85.245 82.7109C85.263 82.7999 87.204 91.7729 100.651 101.462C114.497 111.44 124.352 121.04 125.079 153.887L125.031 158.998Z" fill="#005425"/>
<path d="M130.354 158.998L130.073 158.994L130.13 153.889C129.743 138.494 127.107 127.43 121.833 119.078C116.829 111.151 109.868 106.332 102.573 101.695C94.557 96.5968 90.202 91.7348 87.958 88.5528C85.52 85.0928 84.992 82.8728 84.97 82.7798L85.244 82.7168C85.249 82.7398 85.787 84.9908 88.202 88.4088C90.431 91.5658 94.759 96.3918 102.725 101.457C110.045 106.113 117.036 110.952 122.071 118.928C127.372 127.325 130.022 138.434 130.411 153.887L130.354 158.998Z" fill="#005425"/>
<path d="M135.678 158.998L135.397 158.994L135.458 153.889C135.026 138.496 132.081 127.436 126.188 119.084C120.594 111.156 112.813 106.337 104.661 101.698C95.704 96.6029 90.831 91.7439 88.32 88.5639C85.59 85.1059 84.995 82.8869 84.971 82.7939L85.243 82.7239C85.249 82.7459 85.855 84.9939 88.557 88.4099C91.051 91.5649 95.895 96.3889 104.799 101.453C112.981 106.108 120.791 110.947 126.418 118.922C132.344 127.32 135.305 138.431 135.738 153.887L135.678 158.998Z" fill="#005425"/>
<path d="M141.002 158.998L140.721 158.994L140.787 153.889C140.31 138.499 137.055 127.44 130.543 119.09C124.359 111.161 115.758 106.34 106.744 101.701C87.789 91.944 84.997 82.899 84.971 82.809L85.241 82.731C85.247 82.753 85.921 84.998 88.912 88.412C91.674 91.564 97.033 96.386 106.873 101.451C115.916 106.105 124.547 110.943 130.764 118.916C137.315 127.316 140.59 138.428 141.069 153.886L141.002 158.998Z" fill="#005425"/>
<path d="M144.25 156.619C124.229 154.942 93.248 155.032 70.772 155.403C58.034 155.613 46.621 155.933 39.29 156.166C35.138 156.297 31.827 156.415 29.782 156.49C26.234 156.621 26.234 156.621 26.19 156.684L26.313 156.904C27.091 156.871 105.861 153.686 144.236 156.899C144.24 156.806 144.244 156.712 144.25 156.619Z" fill="#005425"/>
<path d="M143.57 146.849C123.224 145.278 92.789 145.374 70.551 145.741C57.62 145.955 46.033 146.28 38.591 146.515C34.376 146.649 31.015 146.768 28.939 146.844C27.895 146.882 27.155 146.909 26.627 146.931C26.616 147.026 26.602 147.12 26.587 147.214C36.504 146.831 106.795 144.281 143.614 147.134C143.6 147.039 143.584 146.943 143.57 146.849Z" fill="#005425"/>
<path d="M142.221 137.082C121.895 135.616 92.301 135.716 70.552 136.074C57.621 136.288 46.034 136.613 38.592 136.848C34.377 136.982 31.016 137.101 28.94 137.177C28.684 137.186 28.449 137.196 28.229 137.203C28.205 137.298 28.182 137.394 28.157 137.487C42.197 136.966 106.719 134.789 142.287 137.366C142.266 137.273 142.244 137.177 142.221 137.082Z" fill="#005425"/>
<path d="M138.818 127.189C118.693 125.962 91.117 126.068 70.551 126.408C57.62 126.622 46.033 126.947 38.591 127.182C35.73 127.273 33.264 127.357 31.325 127.425C31.278 127.521 31.229 127.617 31.18 127.712C49.167 127.078 105.048 125.392 138.954 127.478C138.91 127.383 138.861 127.287 138.818 127.189Z" fill="#005425"/>
<path d="M79.018 89.6958C83.003 89.6368 87.184 89.5988 91.359 89.5978C91.279 89.5208 91.195 89.4468 91.119 89.3658C91.101 89.3508 91.084 89.3358 91.064 89.3208C86.981 89.3228 82.987 89.3598 79.325 89.4118C79.224 89.5088 79.121 89.6028 79.018 89.6958Z" fill="#005425"/>
<path d="M104.646 98.4649C95.539 98.2359 85.421 98.3029 77.316 98.4379C73.479 98.5009 69.144 98.5999 65.197 98.7059C65.012 98.7979 64.831 98.8969 64.651 98.9989C75.452 98.6999 91.779 98.3939 105.315 98.7629C105.092 98.6649 104.869 98.5679 104.646 98.4649Z" fill="#005425"/>
<path d="M122.088 107.95C107.91 107.155 89.014 107.234 74.821 107.468C65.141 107.628 54.481 107.928 48.185 108.144C48.038 108.246 47.89 108.345 47.742 108.445C61.216 107.978 98.893 106.882 122.565 108.259C122.404 108.157 122.244 108.057 122.088 107.95Z" fill="#005425"/>
<path d="M133.248 117.296C114.092 116.351 89.541 116.463 70.89 116.771C58.249 116.98 45.469 117.334 36.925 117.613C36.819 117.712 36.713 117.811 36.605 117.907C44.661 117.64 56.987 117.282 70.955 117.051C89.655 116.743 114.298 116.633 133.462 117.588C133.387 117.492 133.316 117.395 133.248 117.296Z" fill="#005425"/>
<path d="M85.752 80.1139C85.752 80.4359 85.526 80.6969 85.247 80.6969C84.968 80.6969 84.741 80.4359 84.741 80.1139V59.5579C84.741 59.2359 84.968 58.9749 85.247 58.9749C85.526 58.9749 85.752 59.2359 85.752 59.5579V80.1139Z" fill="#F8C561"/>
<path d="M85.247 80.838C84.891 80.838 84.601 80.513 84.601 80.114V59.558C84.601 59.159 84.891 58.835 85.247 58.835C85.603 58.835 85.893 59.159 85.893 59.558V80.115C85.893 80.513 85.603 80.838 85.247 80.838ZM85.247 59.115C85.045 59.115 84.882 59.314 84.882 59.557V80.114C84.882 80.358 85.046 80.556 85.247 80.556C85.448 80.556 85.611 80.358 85.611 80.114V59.558C85.611 59.314 85.448 59.115 85.247 59.115Z" fill="#969695"/>
<path d="M87.137 76.866C87.137 77.701 86.264 78.378 85.189 78.378C84.113 78.378 83.241 77.701 83.241 76.866C83.241 76.032 84.113 75.355 85.189 75.355C86.264 75.354 87.137 76.031 87.137 76.866Z" fill="#F8C561"/>
<path d="M85.188 78.5179C84.036 78.5179 83.099 77.7769 83.099 76.8659C83.099 75.9549 84.036 75.2139 85.188 75.2139C86.34 75.2139 87.277 75.9549 87.277 76.8659C87.277 77.7769 86.34 78.5179 85.188 78.5179ZM85.188 75.4949C84.191 75.4949 83.38 76.1099 83.38 76.8659C83.38 77.6219 84.191 78.2369 85.188 78.2369C86.185 78.2369 86.996 77.6219 86.996 76.8659C86.996 76.1099 86.185 75.4949 85.188 75.4949Z" fill="#969695"/>
<path d="M87.558 69.2029C87.558 70.1929 86.524 70.9949 85.247 70.9949C83.971 70.9949 82.936 70.1929 82.936 69.2029C82.936 68.2129 83.971 67.4099 85.247 67.4099C86.523 67.4109 87.558 68.2129 87.558 69.2029Z" fill="#F8C561"/>
<path d="M85.188 71.136C83.836 71.136 82.736 70.269 82.736 69.203C82.736 68.137 83.836 67.27 85.188 67.27C86.54 67.27 87.639 68.137 87.639 69.203C87.64 70.27 86.54 71.136 85.188 71.136ZM85.188 67.551C83.991 67.551 83.018 68.292 83.018 69.203C83.018 70.114 83.992 70.855 85.188 70.855C86.384 70.855 87.358 70.114 87.358 69.203C87.358 68.293 86.385 67.551 85.188 67.551Z" fill="#969695"/>
<path d="M86.773 62.8062C86.773 63.4862 86.064 64.0362 85.188 64.0362C84.312 64.0362 83.602 63.4862 83.602 62.8062C83.602 62.1272 84.312 61.5762 85.188 61.5762C86.064 61.5762 86.773 62.1272 86.773 62.8062Z" fill="#F8C561"/>
<path d="M85.188 64.1771C84.236 64.1771 83.461 63.5621 83.461 62.8061C83.461 62.0501 84.235 61.4351 85.188 61.4351C86.14 61.4351 86.914 62.0501 86.914 62.8061C86.914 63.5621 86.14 64.1771 85.188 64.1771ZM85.188 61.7161C84.391 61.7161 83.743 62.2051 83.743 62.8061C83.743 63.4071 84.391 63.8961 85.188 63.8961C85.984 63.8961 86.633 63.4071 86.633 62.8061C86.633 62.2051 85.985 61.7161 85.188 61.7161Z" fill="#969695"/>
<path d="M92.072 88.3279C91.127 86.8069 85.727 80.2759 85.188 79.7839L85.126 79.8719L85.065 79.7839C84.526 80.2759 79.126 86.8069 78.18 88.3279C77.235 89.8489 77.154 90.9609 77.154 90.9609H77.477H92.774H93.1C93.1 90.9609 93.02 89.8479 92.072 88.3279Z" fill="#F8C561"/>
<path d="M93.252 91.102H77.004L77.015 90.951C77.018 90.904 77.109 89.787 78.062 88.253C79.033 86.691 84.473 80.134 84.971 79.679L85.09 79.571L85.127 79.624L85.164 79.571L85.283 79.679C85.781 80.134 91.221 86.691 92.191 88.253C93.146 89.786 93.236 90.904 93.24 90.951L93.252 91.102ZM77.316 90.82H92.939C92.88 90.471 92.669 89.553 91.953 88.402C91.039 86.929 86.13 80.994 85.207 80.003L85.126 80.119L85.046 80.003C84.121 80.995 79.215 86.929 78.3 88.401C77.585 89.553 77.374 90.472 77.316 90.82Z" fill="#969695"/>
<defs>
<linearGradient id="paint0_linear_103_3" x1="15.5703" y1="209.406" x2="42.8687" y2="209.406" gradientUnits="userSpaceOnUse">
<stop stop-color="#D4E3B8"/>
<stop offset="1" stop-color="#EBF2DE"/>
</linearGradient>
<linearGradient id="paint1_linear_103_3" x1="43.1348" y1="209.465" x2="150.85" y2="209.465" gradientUnits="userSpaceOnUse">
<stop stop-color="#D4E3B8"/>
<stop offset="1" stop-color="#EBF2DE"/>
</linearGradient>
</defs>
</svg>
